<svg width="244" height="182" viewBox="0 0 244 182" fill="none" xmlns="http://www.w3.org/2000/svg">
<path d="M243.502 160.015H0.497681V160.136H243.502V160.015Z" fill="#FAFAFA"/>
<path d="M206.187 165.302H194.119V165.424H206.187V165.302Z" fill="#E0E0E0"/>
<path d="M213.832 165.239H209.754V165.361H213.832V165.239Z" fill="#E0E0E0"/>
<path d="M161.867 166.056H136.6V166.177H161.867V166.056Z" fill="#E0E0E0"/>
<path d="M130.636 167.373H126.87V167.494H130.636V167.373Z" fill="#E0E0E0"/>
<path d="M54.9064 163.528H48.4133V163.65H54.9064V163.528Z" fill="#E0E0E0"/>
<path d="M90.5357 163.528H57.6038V163.65H90.5357V163.528Z" fill="#E0E0E0"/>
<path d="M62.4638 166.464H39.5533V166.585H62.4638V166.464Z" fill="#E0E0E0"/>
<path d="M115.682 138.338H21.8384C21.1032 138.337 20.3986 138.044 19.8792 137.524C19.3598 137.004 19.0681 136.298 19.0681 135.563V3.64583C19.0745 2.91489 19.369 2.21598 19.8877 1.70093C20.4064 1.18588 21.1074 0.896272 21.8384 0.89502H115.682C116.418 0.89502 117.124 1.1874 117.644 1.70783C118.165 2.22827 118.457 2.93413 118.457 3.67013V135.563C118.457 136.299 118.165 137.005 117.644 137.526C117.124 138.046 116.418 138.338 115.682 138.338ZM21.8384 0.992222C21.1354 0.993509 20.4617 1.27365 19.9651 1.77116C19.4685 2.26867 19.1896 2.94289 19.1896 3.64583V135.563C19.1896 136.266 19.4685 136.94 19.9651 137.438C20.4617 137.936 21.1354 138.216 21.8384 138.217H115.682C116.385 138.216 117.06 137.936 117.557 137.438C118.054 136.941 118.334 136.267 118.336 135.563V3.64583C118.334 2.94245 118.054 2.26824 117.557 1.77086C117.06 1.27349 116.385 0.993506 115.682 0.992222H21.8384Z" fill="#E0E0E0"/>
<path d="M220.811 138.338H126.962C126.227 138.337 125.521 138.044 125.001 137.524C124.481 137.004 124.188 136.299 124.187 135.563V3.64583C124.195 2.91444 124.49 2.21554 125.01 1.70063C125.529 1.18571 126.231 0.896258 126.962 0.89502H220.811C221.541 0.897549 222.24 1.18772 222.758 1.70263C223.276 2.21755 223.57 2.91573 223.576 3.64583V135.563C223.576 136.298 223.285 137.002 222.767 137.522C222.248 138.042 221.545 138.336 220.811 138.338ZM126.962 0.992222C126.259 0.993506 125.585 1.27349 125.087 1.77086C124.59 2.26824 124.31 2.94245 124.309 3.64583V135.563C124.31 136.267 124.59 136.941 125.087 137.438C125.585 137.936 126.259 138.216 126.962 138.217H220.811C221.514 138.216 222.188 137.936 222.685 137.438C223.183 136.941 223.463 136.267 223.464 135.563V3.64583C223.463 2.94245 223.183 2.26824 222.685 1.77086C222.188 1.27349 221.514 0.993506 220.811 0.992222H126.962Z" fill="#E0E0E0"/>
<path d="M166.591 160.015H183.762V128.852H166.591V160.015Z" fill="#E0E0E0"/>
<path d="M204.247 128.852H183.762V160.014H204.247V128.852Z" fill="#EBEBEB"/>
<g style="mix-blend-mode:multiply" opacity="0.7">
<path d="M166.591 132.9H204.427V131.49H166.591V132.9Z" fill="#E0E0E0"/>
</g>
<path d="M165.644 132.079H183.762V125.586H165.644V132.079Z" fill="#E0E0E0"/>
<path d="M205.195 125.59H183.762V132.083H205.195V125.59Z" fill="#EBEBEB"/>
<path d="M94.8127 10.1245H37.0116V79.0892H94.8127V10.1245Z" fill="#E0E0E0"/>
<path d="M97.4615 10.1245H38.251V79.0892H97.4615V10.1245Z" fill="#EBEBEB"/>
<path d="M94.8127 79.0889H37.0116V84.0024H94.8127V79.0889Z" fill="#E0E0E0"/>
<path d="M101.865 79.0889H42.6542V84.0024H101.865V79.0889Z" fill="#EBEBEB"/>
<path d="M93.7579 75.3856V13.8276L41.9542 13.8276L41.9542 75.3856H93.7579Z" fill="#F5F5F5"/>
<path d="M48.3113 75.3856L70.0408 13.8276H80.2956L58.5709 75.3856H48.3113Z" fill="#FAFAFA"/>
<path d="M43.6649 54.502C43.5949 54.5007 43.5281 54.472 43.479 54.422C43.4299 54.372 43.4025 54.3048 43.4025 54.2347V16.2336C43.4025 16.164 43.4301 16.0973 43.4793 16.0481C43.5286 15.9988 43.5953 15.9712 43.6649 15.9712C43.735 15.9712 43.8022 15.9987 43.8522 16.0478C43.9022 16.0968 43.9309 16.1636 43.9322 16.2336V54.2347C43.9322 54.3056 43.9041 54.3736 43.8539 54.4237C43.8038 54.4739 43.7358 54.502 43.6649 54.502Z" fill="#EBEBEB"/>
<path d="M60.7725 75.3856L82.5019 13.8276H86.5018L64.7723 75.3856H60.7725Z" fill="#FAFAFA"/>
<path d="M93.7531 75.3856V13.8276H93.2816V75.3856H93.7531Z" fill="#E0E0E0"/>
<path d="M98.3314 18.5613H40.5352L40.1949 15.2661H97.9912L98.3314 18.5613Z" fill="#E0E0E0"/>
<path d="M98.3314 20.9768H40.5352L40.1949 17.6768H97.9912L98.3314 20.9768Z" fill="#E0E0E0"/>
<path d="M98.3314 23.8737H40.5352L40.1949 20.5737H97.9912L98.3314 23.8737Z" fill="#E0E0E0"/>
<path d="M98.3314 27.0959H40.5352L40.1949 23.8008H97.9912L98.3314 27.0959Z" fill="#E0E0E0"/>
<path d="M98.3314 30.9597H40.5352L40.1949 27.6597H97.9912L98.3314 30.9597Z" fill="#E0E0E0"/>
<path d="M98.3314 35.2995H40.5352L40.1949 32.0044H97.9912L98.3314 35.2995Z" fill="#E0E0E0"/>
<path d="M199.936 10.1245H142.135V79.0892H199.936V10.1245Z" fill="#E0E0E0"/>
<path d="M202.58 10.1245H143.37V79.0892H202.58V10.1245Z" fill="#EBEBEB"/>
<path d="M199.936 79.0889H142.135V84.0024H199.936V79.0889Z" fill="#E0E0E0"/>
<path d="M206.988 79.0889H147.778V84.0024H206.988V79.0889Z" fill="#EBEBEB"/>
<path d="M198.882 75.3856V13.8276L147.078 13.8276V75.3856H198.882Z" fill="#F5F5F5"/>
<path d="M153.435 75.3856L175.165 13.8276H185.419L163.69 75.3856H153.435Z" fill="#FAFAFA"/>
<path d="M148.789 54.502C148.719 54.5007 148.652 54.472 148.603 54.422C148.554 54.372 148.526 54.3048 148.526 54.2347V16.2336C148.526 16.164 148.554 16.0973 148.603 16.0481C148.653 15.9988 148.719 15.9712 148.789 15.9712C148.859 15.9712 148.925 15.9988 148.975 16.0481C149.024 16.0973 149.051 16.164 149.051 16.2336V54.2347C149.051 54.3048 149.024 54.372 148.975 54.422C148.926 54.472 148.859 54.5007 148.789 54.502Z" fill="#EBEBEB"/>
<path d="M165.896 75.3856L187.626 13.8276H191.621L169.896 75.3856H165.896Z" fill="#FAFAFA"/>
<path d="M198.877 75.3856V13.8276H198.406V75.3856H198.877Z" fill="#E0E0E0"/>
<path d="M203.455 18.5613H145.659L145.314 15.2661H203.115L203.455 18.5613Z" fill="#E0E0E0"/>
<path d="M203.455 20.9768H145.659L145.314 17.6768H203.115L203.455 20.9768Z" fill="#E0E0E0"/>
<path d="M203.455 23.8737H145.659L145.314 20.5737H203.115L203.455 23.8737Z" fill="#E0E0E0"/>
<path d="M203.455 27.0959H145.659L145.314 23.8008H203.115L203.455 27.0959Z" fill="#E0E0E0"/>
<path d="M203.455 30.9597H145.659L145.314 27.6597H203.115L203.455 30.9597Z" fill="#E0E0E0"/>
<path d="M203.455 35.2995H145.659L145.314 32.0044H203.115L203.455 35.2995Z" fill="#E0E0E0"/>
<path d="M155.068 116.303H143.525V160.014H155.068V116.303Z" fill="#E0E0E0"/>
<path d="M152.871 160.015H155.063V154.659H150.573L152.871 160.015Z" fill="#F5F5F5"/>
<path d="M43.0526 116.303H31.5099V160.014H43.0526V116.303Z" fill="#E0E0E0"/>
<path d="M155.068 116.303H41.1378V157.069H155.068V116.303Z" fill="#F5F5F5"/>
<path d="M98.8368 118.344V147.456H153.367V118.344H98.8368Z" fill="#E0E0E0"/>
<path d="M42.8389 118.344V147.456H97.3691V118.344H42.8389Z" fill="#E0E0E0"/>
<path d="M153.362 153.609V150.367H98.8319V153.609H153.362Z" fill="#E0E0E0"/>
<path d="M97.3643 153.614V150.372H42.834V153.614H97.3643Z" fill="#E0E0E0"/>
<path d="M89.3061 120.084H50.9114C50.0589 120.084 49.2151 119.912 48.4308 119.578C47.6465 119.244 46.938 118.755 46.3478 118.14H93.8892C93.2968 118.757 92.585 119.248 91.7972 119.582C91.0094 119.916 90.1619 120.087 89.3061 120.084Z" fill="#F5F5F5"/>
<path d="M145.508 120.084H107.113C106.261 120.084 105.417 119.912 104.633 119.578C103.849 119.244 103.14 118.755 102.55 118.14H150.091C149.5 118.759 148.788 119.25 148 119.584C147.212 119.919 146.364 120.089 145.508 120.084Z" fill="#F5F5F5"/>
<path d="M43.3296 160.015H41.1328V154.659H45.6235L43.3296 160.015Z" fill="#F5F5F5"/>
<g style="mix-blend-mode:multiply" opacity="0.4">
<path d="M124.702 89.4653H111.852V116.303H124.702V89.4653Z" fill="#E0E0E0"/>
</g>
<path d="M135.496 116.303H113.748L111.701 87.3223H133.445L135.496 116.303Z" fill="#E0E0E0"/>
<path d="M137.97 116.303H114.365L112.319 87.3223H135.919L137.97 116.303Z" fill="#F5F5F5"/>
<path d="M115.458 115.195L113.568 88.4302H134.831L136.726 115.195H115.458Z" fill="#FAFAFA"/>
<path d="M120.605 109.202L119.56 94.4229H129.684L130.729 109.202H120.605Z" fill="#F5F5F5"/>
<path d="M77.9432 111.545C81.0622 111.545 83.5906 109.016 83.5906 105.897C83.5906 102.778 81.0622 100.25 77.9432 100.25C74.8242 100.25 72.2958 102.778 72.2958 105.897C72.2958 109.016 74.8242 111.545 77.9432 111.545Z" fill="#EBEBEB"/>
<path d="M87.615 114.237C90.7339 114.237 93.2624 111.709 93.2624 108.59C93.2624 105.471 90.7339 102.942 87.615 102.942C84.496 102.942 81.9675 105.471 81.9675 108.59C81.9675 111.709 84.496 114.237 87.615 114.237Z" fill="#EBEBEB"/>
<path d="M97.2246 109.715C99.148 108.922 100.065 106.721 99.2725 104.797C98.4801 102.874 96.2786 101.957 94.3552 102.749C92.4318 103.542 91.5149 105.743 92.3073 107.667C93.0997 109.59 95.3012 110.507 97.2246 109.715Z" fill="#EBEBEB"/>
<path d="M87.3187 103.087C87.6513 101.033 86.2563 99.0991 84.2028 98.7665C82.1493 98.434 80.2151 99.829 79.8825 101.882C79.5499 103.936 80.9449 105.87 82.9984 106.203C85.0519 106.535 86.9861 105.14 87.3187 103.087Z" fill="#EBEBEB"/>
<path d="M68.9132 107.579C68.9132 107.579 69.3555 116.303 86.3026 116.303C103.25 116.303 103.692 107.579 103.692 107.579H68.9132Z" fill="#E0E0E0"/>
<path d="M53.2637 113.314C53.2637 113.314 47.7427 103.798 55.4022 96.2207C55.4022 96.2207 57.3997 97.5232 57.3462 99.2777C57.2927 101.032 55.2029 101.47 55.6549 102.932C56.1069 104.395 58.0849 105.849 56.797 107.039C55.5091 108.23 57.006 109.319 56.9185 110.801C56.831 112.283 53.2637 113.314 53.2637 113.314Z" fill="#E0E0E0"/>
<path d="M53.6816 114.184C53.6816 114.184 55.9173 103.414 46.2603 98.6313C46.2603 98.6313 44.7731 100.502 45.3563 102.155C45.9395 103.807 48.0779 103.559 48.112 105.071C48.146 106.582 46.7025 108.59 48.3258 109.324C49.9491 110.057 48.8458 111.559 49.395 112.935C49.9442 114.31 53.6816 114.184 53.6816 114.184Z" fill="#E0E0E0"/>
<path d="M45.2106 109.202C45.2106 109.202 45.3953 116.303 52.4327 116.303C59.4701 116.303 59.6548 109.202 59.6548 109.202H45.2106Z" fill="#EBEBEB"/>
<path d="M122 181.963C174.043 181.963 216.232 179.5 216.232 176.461C216.232 173.423 174.043 170.959 122 170.959C69.9568 170.959 27.7676 173.423 27.7676 176.461C27.7676 179.5 69.9568 181.963 122 181.963Z" fill="#F5F5F5"/>
<path d="M88.1981 106.573C87.9099 106.554 87.6398 106.426 87.4424 106.215C87.245 106.005 87.1351 105.727 87.1351 105.438C87.1351 105.149 87.245 104.871 87.4424 104.66C87.6398 104.45 87.9099 104.322 88.1981 104.303C90.9781 104.303 93.3206 100.323 93.3206 95.6084C93.3395 95.3202 93.4673 95.0501 93.678 94.8527C93.8888 94.6553 94.1667 94.5454 94.4555 94.5454C94.7442 94.5454 95.0222 94.6553 95.2329 94.8527C95.4437 95.0501 95.5714 95.3202 95.5903 95.6084C95.5903 101.756 92.3535 106.573 88.1981 106.573Z" fill="#407BFF"/>
<path d="M105.349 106.573C105.061 106.554 104.791 106.426 104.594 106.215C104.396 106.005 104.286 105.727 104.286 105.438C104.286 105.149 104.396 104.871 104.594 104.66C104.791 104.45 105.061 104.322 105.349 104.303C108.129 104.303 110.472 100.323 110.472 95.6084C110.491 95.3202 110.619 95.0501 110.829 94.8527C111.04 94.6553 111.318 94.5454 111.607 94.5454C111.895 94.5454 112.173 94.6553 112.384 94.8527C112.595 95.0501 112.723 95.3202 112.742 95.6084C112.766 101.756 109.495 106.573 105.349 106.573Z" fill="#407BFF"/>
<path d="M122.486 106.573C122.198 106.554 121.928 106.426 121.73 106.215C121.533 106.005 121.423 105.727 121.423 105.438C121.423 105.149 121.533 104.871 121.73 104.661C121.928 104.45 122.198 104.322 122.486 104.303C125.261 104.303 127.609 100.323 127.609 95.6085C127.609 95.3081 127.728 95.0201 127.94 94.8077C128.153 94.5954 128.441 94.4761 128.741 94.4761C129.041 94.4761 129.329 94.5954 129.542 94.8077C129.754 95.0201 129.873 95.3081 129.873 95.6085C129.888 101.756 126.646 106.573 122.486 106.573Z" fill="#407BFF"/>
<path d="M139.652 106.573C139.496 106.583 139.341 106.561 139.194 106.509C139.048 106.456 138.914 106.374 138.8 106.268C138.686 106.162 138.596 106.033 138.534 105.89C138.472 105.748 138.44 105.594 138.44 105.438C138.44 105.282 138.472 105.128 138.534 104.986C138.596 104.843 138.686 104.714 138.8 104.608C138.914 104.502 139.048 104.42 139.194 104.367C139.341 104.315 139.496 104.293 139.652 104.303C142.427 104.303 144.774 100.323 144.774 95.6085C144.774 95.3081 144.894 95.0201 145.106 94.8077C145.318 94.5954 145.606 94.4761 145.907 94.4761C146.207 94.4761 146.495 94.5954 146.707 94.8077C146.92 95.0201 147.039 95.3081 147.039 95.6085C147.039 101.756 143.793 106.573 139.652 106.573Z" fill="#407BFF"/>
<path d="M156.798 106.573C156.51 106.554 156.24 106.426 156.043 106.215C155.845 106.005 155.735 105.727 155.735 105.438C155.735 105.149 155.845 104.871 156.043 104.66C156.24 104.45 156.51 104.322 156.798 104.303C159.578 104.303 161.921 100.323 161.921 95.6084C161.94 95.3202 162.067 95.0501 162.278 94.8527C162.489 94.6553 162.767 94.5454 163.056 94.5454C163.344 94.5454 163.622 94.6553 163.833 94.8527C164.044 95.0501 164.172 95.3202 164.191 95.6084C164.191 101.756 160.944 106.573 156.798 106.573Z" fill="#407BFF"/>
<path d="M173.949 106.573C173.661 106.554 173.391 106.426 173.194 106.215C172.996 106.005 172.886 105.727 172.886 105.438C172.886 105.149 172.996 104.871 173.194 104.66C173.391 104.45 173.661 104.322 173.949 104.303C176.725 104.303 179.072 100.323 179.072 95.6084C179.091 95.3202 179.219 95.0501 179.429 94.8527C179.64 94.6553 179.918 94.5454 180.207 94.5454C180.496 94.5454 180.774 94.6553 180.984 94.8527C181.195 95.0501 181.323 95.3202 181.342 95.6084C181.342 101.756 178.095 106.573 173.949 106.573Z" fill="#407BFF"/>
<g opacity="0.3">
<path d="M88.1981 106.573C87.9099 106.554 87.6398 106.426 87.4424 106.215C87.245 106.005 87.1351 105.727 87.1351 105.438C87.1351 105.149 87.245 104.871 87.4424 104.66C87.6398 104.45 87.9099 104.322 88.1981 104.303C90.9781 104.303 93.3206 100.323 93.3206 95.6084C93.3395 95.3202 93.4673 95.0501 93.678 94.8527C93.8888 94.6553 94.1667 94.5454 94.4555 94.5454C94.7442 94.5454 95.0222 94.6553 95.2329 94.8527C95.4437 95.0501 95.5714 95.3202 95.5903 95.6084C95.5903 101.756 92.3535 106.573 88.1981 106.573Z" fill="black"/>
<path d="M105.349 106.573C105.061 106.554 104.791 106.426 104.594 106.215C104.396 106.005 104.286 105.727 104.286 105.438C104.286 105.149 104.396 104.871 104.594 104.66C104.791 104.45 105.061 104.322 105.349 104.303C108.129 104.303 110.472 100.323 110.472 95.6084C110.491 95.3202 110.619 95.0501 110.829 94.8527C111.04 94.6553 111.318 94.5454 111.607 94.5454C111.895 94.5454 112.173 94.6553 112.384 94.8527C112.595 95.0501 112.723 95.3202 112.742 95.6084C112.766 101.756 109.495 106.573 105.349 106.573Z" fill="black"/>
<path d="M122.486 106.573C122.198 106.554 121.928 106.426 121.73 106.215C121.533 106.005 121.423 105.727 121.423 105.438C121.423 105.149 121.533 104.871 121.73 104.661C121.928 104.45 122.198 104.322 122.486 104.303C125.261 104.303 127.609 100.323 127.609 95.6085C127.609 95.3081 127.728 95.0201 127.94 94.8077C128.153 94.5954 128.441 94.4761 128.741 94.4761C129.041 94.4761 129.329 94.5954 129.542 94.8077C129.754 95.0201 129.873 95.3081 129.873 95.6085C129.888 101.756 126.646 106.573 122.486 106.573Z" fill="black"/>
<path d="M139.652 106.573C139.496 106.583 139.341 106.561 139.194 106.509C139.048 106.456 138.914 106.374 138.8 106.268C138.686 106.162 138.596 106.033 138.534 105.89C138.472 105.748 138.44 105.594 138.44 105.438C138.44 105.282 138.472 105.128 138.534 104.986C138.596 104.843 138.686 104.714 138.8 104.608C138.914 104.502 139.048 104.42 139.194 104.367C139.341 104.315 139.496 104.293 139.652 104.303C142.427 104.303 144.774 100.323 144.774 95.6085C144.774 95.3081 144.894 95.0201 145.106 94.8077C145.318 94.5954 145.606 94.4761 145.907 94.4761C146.207 94.4761 146.495 94.5954 146.707 94.8077C146.92 95.0201 147.039 95.3081 147.039 95.6085C147.039 101.756 143.793 106.573 139.652 106.573Z" fill="black"/>
<path d="M156.798 106.573C156.51 106.554 156.24 106.426 156.043 106.215C155.845 106.005 155.735 105.727 155.735 105.438C155.735 105.149 155.845 104.871 156.043 104.66C156.24 104.45 156.51 104.322 156.798 104.303C159.578 104.303 161.921 100.323 161.921 95.6084C161.94 95.3202 162.067 95.0501 162.278 94.8527C162.489 94.6553 162.767 94.5454 163.056 94.5454C163.344 94.5454 163.622 94.6553 163.833 94.8527C164.044 95.0501 164.172 95.3202 164.191 95.6084C164.191 101.756 160.944 106.573 156.798 106.573Z" fill="black"/>
<path d="M173.949 106.573C173.661 106.554 173.391 106.426 173.194 106.215C172.996 106.005 172.886 105.727 172.886 105.438C172.886 105.149 172.996 104.871 173.194 104.66C173.391 104.45 173.661 104.322 173.949 104.303C176.725 104.303 179.072 100.323 179.072 95.6084C179.091 95.3202 179.219 95.0501 179.429 94.8527C179.64 94.6553 179.918 94.5454 180.207 94.5454C180.496 94.5454 180.774 94.6553 180.984 94.8527C181.195 95.0501 181.323 95.3202 181.342 95.6084C181.342 101.756 178.095 106.573 173.949 106.573Z" fill="black"/>
</g>
<path d="M77.4523 96.7701H187.864C189.344 96.7998 190.763 97.3686 191.854 98.3699C192.945 99.3712 193.632 100.736 193.788 102.209L199.902 171.139C199.977 171.831 199.903 172.531 199.687 173.192C199.471 173.853 199.117 174.461 198.648 174.975C198.18 175.489 197.607 175.898 196.969 176.174C196.33 176.45 195.641 176.588 194.945 176.578H84.5286C83.0489 176.546 81.6313 175.976 80.541 174.976C79.4506 173.975 78.7621 172.611 78.6042 171.139L72.495 102.209C72.4199 101.517 72.4926 100.817 72.7085 100.155C72.9244 99.4938 73.2785 98.8857 73.7473 98.3714C74.2161 97.8572 74.7888 97.4484 75.4276 97.1724C76.0664 96.8963 76.7565 96.7592 77.4523 96.7701Z" fill="#407BFF"/>
<path opacity="0.4" d="M77.4523 96.7701H187.864C189.344 96.7998 190.763 97.3686 191.854 98.3699C192.945 99.3712 193.632 100.736 193.788 102.209L199.902 171.139C199.977 171.831 199.903 172.531 199.687 173.192C199.471 173.853 199.117 174.461 198.648 174.975C198.18 175.489 197.607 175.898 196.969 176.174C196.33 176.45 195.641 176.588 194.945 176.578H84.5286C83.0489 176.546 81.6313 175.976 80.541 174.976C79.4506 173.975 78.7621 172.611 78.6042 171.139L72.495 102.209C72.4199 101.517 72.4926 100.817 72.7085 100.155C72.9244 99.4938 73.2785 98.8857 73.7473 98.3714C74.2161 97.8572 74.7888 97.4484 75.4276 97.1724C76.0664 96.8963 76.7565 96.7592 77.4523 96.7701Z" fill="#FAFAFA"/>
<path d="M186.945 96.7701H76.5289C75.0684 96.7875 73.669 97.3587 72.6135 98.3682C71.558 99.3777 70.925 100.75 70.8426 102.209L67.7322 171.139C67.6951 171.841 67.8018 172.544 68.0457 173.203C68.2896 173.863 68.6656 174.466 69.1506 174.975C69.6357 175.484 70.2195 175.889 70.8665 176.164C71.5134 176.44 72.2098 176.581 72.913 176.578H183.339C184.8 176.56 186.199 175.989 187.255 174.98C188.31 173.97 188.943 172.598 189.026 171.139L192.141 102.209C192.177 101.505 192.07 100.802 191.825 100.142C191.58 99.4815 191.202 98.8783 190.716 98.3691C190.229 97.8599 189.644 97.4554 188.996 97.1805C188.347 96.9055 187.65 96.7659 186.945 96.7701Z" fill="#407BFF"/>
<path opacity="0.2" d="M186.945 96.7701H76.5289C75.0684 96.7875 73.669 97.3587 72.6135 98.3682C71.558 99.3777 70.925 100.75 70.8426 102.209L67.7322 171.139C67.6951 171.841 67.8018 172.544 68.0457 173.203C68.2896 173.863 68.6656 174.466 69.1506 174.975C69.6357 175.484 70.2195 175.889 70.8665 176.164C71.5134 176.44 72.2098 176.581 72.913 176.578H183.339C184.8 176.56 186.199 175.989 187.255 174.98C188.31 173.97 188.943 172.598 189.026 171.139L192.141 102.209C192.177 101.505 192.07 100.802 191.825 100.142C191.58 99.4815 191.202 98.8783 190.716 98.3691C190.229 97.8599 189.644 97.4554 188.996 97.1805C188.347 96.9055 187.65 96.7659 186.945 96.7701Z" fill="#FAFAFA"/>
<path d="M78.5556 158.362L81.1266 101.436C81.1574 100.877 81.3997 100.351 81.804 99.9651C82.2084 99.5788 82.7447 99.3608 83.3039 99.3555H179.937C180.207 99.3538 180.473 99.4072 180.721 99.5123C180.97 99.6175 181.193 99.7722 181.38 99.9669C181.566 100.162 181.71 100.392 181.804 100.645C181.898 100.898 181.939 101.167 181.925 101.436L179.349 158.362C179.318 158.92 179.076 159.446 178.672 159.832C178.267 160.219 177.731 160.437 177.172 160.442H80.5434C80.274 160.444 80.0071 160.39 79.7591 160.285C79.511 160.18 79.2871 160.025 79.101 159.831C78.9148 159.636 78.7705 159.405 78.6767 159.153C78.5829 158.9 78.5417 158.631 78.5556 158.362Z" fill="#407BFF"/>
<path opacity="0.1" d="M78.5556 158.362L81.1266 101.436C81.1574 100.877 81.3997 100.351 81.804 99.9651C82.2084 99.5788 82.7447 99.3608 83.3039 99.3555H179.937C180.207 99.3538 180.473 99.4072 180.721 99.5123C180.97 99.6175 181.193 99.7722 181.38 99.9669C181.566 100.162 181.71 100.392 181.804 100.645C181.898 100.898 181.939 101.167 181.925 101.436L179.349 158.362C179.318 158.92 179.076 159.446 178.672 159.832C178.267 160.219 177.731 160.437 177.172 160.442H80.5434C80.274 160.444 80.0071 160.39 79.7591 160.285C79.511 160.18 79.2871 160.025 79.101 159.831C78.9148 159.636 78.7705 159.405 78.6767 159.153C78.5829 158.9 78.5417 158.631 78.5556 158.362Z" fill="#FAFAFA"/>
<path opacity="0.1" d="M75.829 163.008L78.5264 103.229C78.5573 102.643 78.811 102.09 79.2355 101.685C79.6601 101.279 80.2235 101.051 80.8106 101.047H182.289C182.572 101.045 182.852 101.1 183.113 101.21C183.373 101.32 183.609 101.483 183.804 101.687C183.999 101.891 184.151 102.134 184.249 102.399C184.347 102.664 184.39 102.947 184.374 103.229L181.672 163.008C181.641 163.594 181.388 164.146 180.965 164.553C180.542 164.959 179.979 165.189 179.393 165.195H77.9043C77.6217 165.197 77.3417 165.141 77.0817 165.03C76.8217 164.919 76.5872 164.757 76.3926 164.552C76.1981 164.347 76.0477 164.104 75.9508 163.838C75.8538 163.573 75.8124 163.29 75.829 163.008Z" fill="black"/>
<path d="M73.3213 167.829L76.1353 105.474C76.1731 104.865 76.4391 104.291 76.8804 103.869C77.3217 103.447 77.906 103.206 78.5167 103.195H184.374C184.67 103.192 184.962 103.251 185.234 103.366C185.506 103.481 185.752 103.65 185.956 103.864C186.16 104.077 186.318 104.33 186.421 104.607C186.523 104.884 186.568 105.179 186.552 105.474L183.723 167.829C183.685 168.439 183.419 169.012 182.978 169.435C182.537 169.857 181.953 170.098 181.342 170.109H75.4986C75.2031 170.112 74.9101 170.054 74.6377 169.939C74.3654 169.825 74.1195 169.655 73.9154 169.441C73.7112 169.228 73.5532 168.974 73.451 168.697C73.3488 168.42 73.3046 168.124 73.3213 167.829Z" fill="#FAFAFA"/>
<path d="M173.935 106.932C173.736 106.933 173.539 106.892 173.356 106.814C173.173 106.735 173.008 106.62 172.872 106.475C172.735 106.33 172.63 106.159 172.562 105.972C172.494 105.784 172.465 105.585 172.477 105.387C172.495 104.997 172.662 104.629 172.943 104.358C173.224 104.087 173.598 103.933 173.988 103.929C174.187 103.928 174.384 103.969 174.567 104.047C174.75 104.126 174.915 104.241 175.052 104.386C175.188 104.531 175.294 104.702 175.362 104.889C175.429 105.076 175.458 105.276 175.446 105.474C175.428 105.864 175.261 106.232 174.98 106.503C174.699 106.774 174.325 106.928 173.935 106.932Z" fill="#407BFF"/>
<path d="M156.784 106.932C156.585 106.933 156.388 106.892 156.205 106.814C156.022 106.735 155.857 106.62 155.721 106.475C155.584 106.33 155.478 106.159 155.411 105.972C155.343 105.784 155.314 105.585 155.326 105.387C155.344 104.997 155.511 104.629 155.792 104.358C156.073 104.087 156.447 103.933 156.837 103.929C157.036 103.928 157.233 103.969 157.416 104.047C157.599 104.126 157.764 104.241 157.9 104.386C158.037 104.531 158.143 104.702 158.21 104.889C158.278 105.076 158.307 105.276 158.295 105.474C158.278 105.865 158.111 106.233 157.83 106.505C157.549 106.776 157.174 106.929 156.784 106.932Z" fill="#407BFF"/>
<path d="M139.632 106.932C139.433 106.933 139.236 106.892 139.053 106.814C138.871 106.735 138.706 106.62 138.569 106.475C138.433 106.33 138.327 106.159 138.259 105.972C138.191 105.784 138.162 105.585 138.174 105.387C138.194 104.997 138.361 104.63 138.642 104.359C138.923 104.088 139.296 103.934 139.686 103.929C139.885 103.928 140.082 103.969 140.265 104.047C140.448 104.126 140.612 104.241 140.749 104.386C140.886 104.531 140.991 104.702 141.059 104.889C141.127 105.076 141.156 105.276 141.144 105.474C141.126 105.865 140.96 106.233 140.679 106.505C140.398 106.776 140.023 106.929 139.632 106.932Z" fill="#407BFF"/>
<path d="M122.486 106.932C122.287 106.933 122.09 106.892 121.907 106.814C121.724 106.735 121.559 106.62 121.423 106.475C121.286 106.33 121.181 106.159 121.113 105.972C121.045 105.784 121.016 105.585 121.028 105.387C121.049 104.997 121.217 104.629 121.499 104.359C121.78 104.088 122.154 103.934 122.544 103.929C122.743 103.928 122.94 103.969 123.123 104.047C123.306 104.126 123.471 104.241 123.607 104.386C123.744 104.531 123.85 104.702 123.917 104.889C123.985 105.076 124.014 105.276 124.002 105.474C123.985 105.865 123.818 106.235 123.535 106.506C123.253 106.778 122.877 106.93 122.486 106.932Z" fill="#407BFF"/>
<path d="M105.335 106.932C105.136 106.933 104.939 106.892 104.756 106.814C104.573 106.735 104.408 106.62 104.272 106.475C104.135 106.33 104.03 106.159 103.962 105.972C103.894 105.784 103.865 105.585 103.877 105.387C103.895 104.997 104.062 104.629 104.343 104.358C104.624 104.087 104.998 103.933 105.388 103.929C105.587 103.928 105.784 103.969 105.967 104.047C106.15 104.126 106.315 104.241 106.451 104.386C106.588 104.531 106.694 104.702 106.761 104.889C106.829 105.076 106.858 105.276 106.846 105.474C106.828 105.864 106.661 106.232 106.38 106.503C106.099 106.774 105.725 106.928 105.335 106.932Z" fill="#407BFF"/>
<path d="M88.1834 106.932C87.9844 106.933 87.7873 106.892 87.6045 106.814C87.4216 106.735 87.2568 106.62 87.1202 106.475C86.9836 106.33 86.8781 106.159 86.8102 105.972C86.7423 105.784 86.7135 105.585 86.7254 105.387C86.744 104.997 86.9108 104.629 87.1917 104.358C87.4727 104.087 87.8466 103.933 88.2369 103.929C88.436 103.928 88.633 103.969 88.8158 104.047C88.9987 104.126 89.1635 104.241 89.3001 104.386C89.4367 104.531 89.5422 104.702 89.6101 104.889C89.678 105.076 89.7069 105.276 89.6949 105.474C89.6775 105.865 89.5111 106.233 89.2299 106.505C88.9487 106.776 88.5741 106.929 88.1834 106.932Z" fill="#407BFF"/>
<g opacity="0.1">
<path d="M173.935 106.932C173.736 106.933 173.539 106.892 173.356 106.814C173.173 106.735 173.008 106.62 172.872 106.475C172.735 106.33 172.63 106.159 172.562 105.972C172.494 105.784 172.465 105.585 172.477 105.387C172.495 104.997 172.662 104.629 172.943 104.358C173.224 104.087 173.598 103.933 173.988 103.929C174.187 103.928 174.384 103.969 174.567 104.047C174.75 104.126 174.915 104.241 175.052 104.386C175.188 104.531 175.294 104.702 175.362 104.889C175.429 105.076 175.458 105.276 175.446 105.474C175.428 105.864 175.261 106.232 174.98 106.503C174.699 106.774 174.325 106.928 173.935 106.932Z" fill="#FAFAFA"/>
<path d="M156.784 106.932C156.585 106.933 156.388 106.892 156.205 106.814C156.022 106.735 155.857 106.62 155.721 106.475C155.584 106.33 155.478 106.159 155.411 105.972C155.343 105.784 155.314 105.585 155.326 105.387C155.344 104.997 155.511 104.629 155.792 104.358C156.073 104.087 156.447 103.933 156.837 103.929C157.036 103.928 157.233 103.969 157.416 104.047C157.599 104.126 157.764 104.241 157.9 104.386C158.037 104.531 158.143 104.702 158.21 104.889C158.278 105.076 158.307 105.276 158.295 105.474C158.278 105.865 158.111 106.233 157.83 106.505C157.549 106.776 157.174 106.929 156.784 106.932Z" fill="#FAFAFA"/>
<path d="M139.632 106.932C139.433 106.933 139.236 106.892 139.053 106.814C138.871 106.735 138.706 106.62 138.569 106.475C138.433 106.33 138.327 106.159 138.259 105.972C138.191 105.784 138.162 105.585 138.174 105.387C138.194 104.997 138.361 104.63 138.642 104.359C138.923 104.088 139.296 103.934 139.686 103.929C139.885 103.928 140.082 103.969 140.265 104.047C140.448 104.126 140.612 104.241 140.749 104.386C140.886 104.531 140.991 104.702 141.059 104.889C141.127 105.076 141.156 105.276 141.144 105.474C141.126 105.865 140.96 106.233 140.679 106.505C140.398 106.776 140.023 106.929 139.632 106.932Z" fill="#FAFAFA"/>
<path d="M122.486 106.932C122.287 106.933 122.09 106.892 121.907 106.814C121.724 106.735 121.559 106.62 121.423 106.475C121.286 106.33 121.181 106.159 121.113 105.972C121.045 105.784 121.016 105.585 121.028 105.387C121.049 104.997 121.217 104.629 121.499 104.359C121.78 104.088 122.154 103.934 122.544 103.929C122.743 103.928 122.94 103.969 123.123 104.047C123.306 104.126 123.471 104.241 123.607 104.386C123.744 104.531 123.85 104.702 123.917 104.889C123.985 105.076 124.014 105.276 124.002 105.474C123.985 105.865 123.818 106.235 123.535 106.506C123.253 106.778 122.877 106.93 122.486 106.932Z" fill="#FAFAFA"/>
<path d="M105.335 106.932C105.136 106.933 104.939 106.892 104.756 106.814C104.573 106.735 104.408 106.62 104.272 106.475C104.135 106.33 104.03 106.159 103.962 105.972C103.894 105.784 103.865 105.585 103.877 105.387C103.895 104.997 104.062 104.629 104.343 104.358C104.624 104.087 104.998 103.933 105.388 103.929C105.587 103.928 105.784 103.969 105.967 104.047C106.15 104.126 106.315 104.241 106.451 104.386C106.588 104.531 106.694 104.702 106.761 104.889C106.829 105.076 106.858 105.276 106.846 105.474C106.828 105.864 106.661 106.232 106.38 106.503C106.099 106.774 105.725 106.928 105.335 106.932Z" fill="#FAFAFA"/>
<path d="M88.1834 106.932C87.9844 106.933 87.7873 106.892 87.6045 106.814C87.4216 106.735 87.2568 106.62 87.1202 106.475C86.9836 106.33 86.8781 106.159 86.8102 105.972C86.7423 105.784 86.7135 105.585 86.7254 105.387C86.744 104.997 86.9108 104.629 87.1917 104.358C87.4727 104.087 87.8466 103.933 88.2369 103.929C88.436 103.928 88.633 103.969 88.8158 104.047C88.9987 104.126 89.1635 104.241 89.3001 104.386C89.4367 104.531 89.5422 104.702 89.6101 104.889C89.678 105.076 89.7069 105.276 89.6949 105.474C89.6775 105.865 89.5111 106.233 89.2299 106.505C88.9487 106.776 88.5741 106.929 88.1834 106.932Z" fill="#FAFAFA"/>
</g>
<path d="M92.4702 112.366H83.8435C83.7185 112.367 83.5945 112.342 83.4796 112.293C83.3647 112.243 83.2612 112.171 83.1758 112.079C83.0904 111.988 83.0248 111.88 82.9833 111.762C82.9418 111.644 82.9253 111.519 82.9347 111.394C82.9443 111.139 83.0498 110.898 83.2301 110.717C83.4103 110.537 83.652 110.432 83.9067 110.422H92.5334C92.6584 110.421 92.7824 110.446 92.8973 110.495C93.0122 110.544 93.1157 110.617 93.2011 110.708C93.2865 110.8 93.3521 110.908 93.3936 111.026C93.4351 111.144 93.4516 111.269 93.4422 111.394C93.4326 111.649 93.3271 111.89 93.1469 112.071C92.9666 112.251 92.7249 112.356 92.4702 112.366Z" fill="#407BFF"/>
<path d="M109.621 112.366H100.995C100.87 112.367 100.746 112.342 100.631 112.293C100.516 112.243 100.412 112.171 100.327 112.079C100.241 111.988 100.176 111.88 100.134 111.762C100.093 111.644 100.076 111.519 100.086 111.394C100.096 111.135 100.205 110.89 100.39 110.709C100.575 110.528 100.823 110.425 101.082 110.422H109.704C109.829 110.421 109.953 110.446 110.068 110.495C110.184 110.544 110.287 110.617 110.373 110.708C110.459 110.8 110.525 110.908 110.567 111.026C110.609 111.144 110.626 111.269 110.618 111.394C110.608 111.653 110.499 111.898 110.313 112.079C110.128 112.26 109.88 112.362 109.621 112.366Z" fill="#407BFF"/>
<path d="M126.773 112.366H118.146C118.021 112.367 117.897 112.342 117.781 112.293C117.666 112.243 117.563 112.171 117.477 112.08C117.391 111.988 117.325 111.88 117.283 111.762C117.241 111.644 117.224 111.519 117.232 111.394C117.242 111.135 117.351 110.89 117.537 110.709C117.722 110.528 117.97 110.425 118.229 110.422H126.86C126.985 110.421 127.109 110.446 127.224 110.495C127.339 110.544 127.442 110.617 127.528 110.708C127.613 110.8 127.679 110.908 127.72 111.026C127.762 111.144 127.778 111.269 127.769 111.394C127.76 111.653 127.652 111.899 127.466 112.08C127.28 112.261 127.032 112.364 126.773 112.366Z" fill="#407BFF"/>
<path d="M143.919 112.366H135.292C135.167 112.367 135.043 112.342 134.928 112.293C134.814 112.243 134.71 112.171 134.625 112.079C134.539 111.988 134.474 111.88 134.432 111.762C134.391 111.644 134.374 111.519 134.384 111.394C134.393 111.139 134.499 110.898 134.679 110.717C134.859 110.537 135.101 110.432 135.356 110.422H143.982C144.107 110.421 144.231 110.446 144.346 110.495C144.461 110.544 144.565 110.617 144.65 110.708C144.735 110.8 144.801 110.908 144.842 111.026C144.884 111.144 144.9 111.269 144.891 111.394C144.881 111.649 144.776 111.89 144.596 112.071C144.415 112.251 144.174 112.356 143.919 112.366Z" fill="#407BFF"/>
<path d="M161.07 112.366H152.444C152.319 112.367 152.195 112.342 152.08 112.293C151.965 112.243 151.861 112.171 151.776 112.079C151.69 111.988 151.625 111.88 151.583 111.762C151.542 111.644 151.525 111.519 151.535 111.394C151.545 111.135 151.654 110.89 151.839 110.709C152.024 110.528 152.272 110.425 152.531 110.422H161.158C161.283 110.421 161.407 110.446 161.522 110.495C161.637 110.544 161.74 110.617 161.826 110.708C161.911 110.8 161.976 110.908 162.018 111.026C162.059 111.144 162.076 111.269 162.067 111.394C162.057 111.653 161.948 111.898 161.762 112.079C161.577 112.26 161.329 112.362 161.07 112.366Z" fill="#407BFF"/>
<path d="M178.222 112.366H169.595C169.47 112.367 169.346 112.342 169.231 112.293C169.116 112.243 169.013 112.171 168.927 112.079C168.842 111.988 168.776 111.88 168.735 111.762C168.693 111.644 168.677 111.519 168.686 111.394C168.696 111.135 168.805 110.89 168.99 110.709C169.176 110.528 169.423 110.425 169.682 110.422H178.304C178.429 110.421 178.554 110.446 178.669 110.495C178.784 110.544 178.888 110.617 178.973 110.708C179.059 110.8 179.125 110.908 179.167 111.026C179.209 111.144 179.227 111.269 179.218 111.394C179.208 111.653 179.099 111.898 178.914 112.079C178.728 112.26 178.481 112.362 178.222 112.366Z" fill="#407BFF"/>
<g opacity="0.3">
<path d="M92.4702 112.366H83.8435C83.7185 112.367 83.5945 112.342 83.4796 112.293C83.3647 112.243 83.2612 112.171 83.1758 112.079C83.0904 111.988 83.0248 111.88 82.9833 111.762C82.9418 111.644 82.9253 111.519 82.9347 111.394C82.9443 111.139 83.0498 110.898 83.2301 110.717C83.4103 110.537 83.652 110.432 83.9067 110.422H92.5334C92.6584 110.421 92.7824 110.446 92.8973 110.495C93.0122 110.544 93.1157 110.617 93.2011 110.708C93.2865 110.8 93.3521 110.908 93.3936 111.026C93.4351 111.144 93.4516 111.269 93.4422 111.394C93.4326 111.649 93.3271 111.89 93.1469 112.071C92.9666 112.251 92.7249 112.356 92.4702 112.366Z" fill="black"/>
<path d="M109.621 112.366H100.995C100.87 112.367 100.746 112.342 100.631 112.293C100.516 112.243 100.412 112.171 100.327 112.079C100.241 111.988 100.176 111.88 100.134 111.762C100.093 111.644 100.076 111.519 100.086 111.394C100.096 111.135 100.205 110.89 100.39 110.709C100.575 110.528 100.823 110.425 101.082 110.422H109.704C109.829 110.421 109.953 110.446 110.068 110.495C110.184 110.544 110.287 110.617 110.373 110.708C110.459 110.8 110.525 110.908 110.567 111.026C110.609 111.144 110.626 111.269 110.618 111.394C110.608 111.653 110.499 111.898 110.313 112.079C110.128 112.26 109.88 112.362 109.621 112.366Z" fill="black"/>
<path d="M126.773 112.366H118.146C118.021 112.367 117.897 112.342 117.782 112.293C117.666 112.243 117.563 112.171 117.477 112.08C117.391 111.988 117.325 111.88 117.283 111.762C117.241 111.644 117.224 111.519 117.232 111.394C117.242 111.135 117.351 110.89 117.537 110.709C117.722 110.528 117.97 110.425 118.229 110.422H126.86C126.985 110.421 127.109 110.446 127.224 110.495C127.339 110.544 127.443 110.617 127.528 110.708C127.613 110.8 127.679 110.908 127.72 111.026C127.762 111.144 127.779 111.269 127.769 111.394C127.76 111.653 127.652 111.899 127.466 112.08C127.281 112.261 127.032 112.364 126.773 112.366Z" fill="black"/>
<path d="M143.919 112.366H135.293C135.167 112.367 135.044 112.342 134.929 112.293C134.814 112.243 134.71 112.171 134.625 112.079C134.539 111.988 134.474 111.88 134.432 111.762C134.391 111.644 134.374 111.519 134.384 111.394C134.393 111.139 134.499 110.898 134.679 110.717C134.859 110.537 135.101 110.432 135.356 110.422H143.982C144.107 110.421 144.231 110.446 144.346 110.495C144.461 110.544 144.565 110.617 144.65 110.708C144.736 110.8 144.801 110.908 144.843 111.026C144.884 111.144 144.901 111.269 144.891 111.394C144.882 111.649 144.776 111.89 144.596 112.071C144.416 112.251 144.174 112.356 143.919 112.366Z" fill="black"/>
<path d="M161.07 112.366H152.444C152.319 112.367 152.195 112.342 152.08 112.293C151.965 112.243 151.861 112.171 151.776 112.079C151.691 111.988 151.625 111.88 151.584 111.762C151.542 111.644 151.525 111.519 151.535 111.394C151.545 111.135 151.654 110.89 151.839 110.709C152.025 110.528 152.272 110.425 152.531 110.422H161.158C161.283 110.421 161.407 110.446 161.522 110.495C161.637 110.544 161.74 110.617 161.826 110.708C161.911 110.8 161.977 110.908 162.018 111.026C162.06 111.144 162.076 111.269 162.067 111.394C162.057 111.653 161.948 111.898 161.763 112.079C161.577 112.26 161.329 112.362 161.07 112.366Z" fill="black"/>
<path d="M178.222 112.366H169.595C169.47 112.367 169.346 112.342 169.231 112.293C169.116 112.243 169.013 112.171 168.927 112.079C168.842 111.988 168.776 111.88 168.735 111.762C168.693 111.644 168.677 111.519 168.686 111.394C168.696 111.135 168.805 110.89 168.99 110.709C169.176 110.528 169.423 110.425 169.682 110.422H178.304C178.43 110.421 178.554 110.446 178.669 110.495C178.784 110.544 178.888 110.617 178.974 110.708C179.059 110.8 179.125 110.908 179.167 111.026C179.209 111.144 179.227 111.269 179.218 111.394C179.208 111.653 179.099 111.898 178.914 112.079C178.728 112.26 178.481 112.362 178.222 112.366Z" fill="black"/>
</g>
<path d="M92.9463 130.723H81.7098C81.4634 130.724 81.2193 130.674 80.9925 130.578C80.7658 130.481 80.5611 130.34 80.391 130.161C80.2208 129.983 80.0889 129.772 80.0031 129.541C79.9173 129.31 79.8796 129.064 79.8921 128.817L80.3781 117.581C80.4076 117.07 80.6296 116.59 80.9994 116.236C81.3692 115.883 81.8592 115.682 82.3708 115.676H93.6073C93.8538 115.675 94.0978 115.724 94.3246 115.821C94.5513 115.917 94.756 116.059 94.9261 116.237C95.0963 116.416 95.2282 116.627 95.314 116.858C95.3998 117.089 95.4375 117.335 95.425 117.581L94.939 128.817C94.9084 129.328 94.686 129.808 94.3165 130.161C93.947 130.514 93.4575 130.715 92.9463 130.723Z" fill="#407BFF"/>
<path d="M110.098 130.723H98.8611C98.6144 130.724 98.37 130.676 98.143 130.579C97.9159 130.483 97.7109 130.341 97.5406 130.163C97.3704 129.984 97.2384 129.773 97.1529 129.542C97.0674 129.31 97.0301 129.064 97.0434 128.817L97.5294 117.581C97.5589 117.07 97.7809 116.59 98.1507 116.236C98.5204 115.883 99.0105 115.682 99.522 115.676H110.773C111.02 115.675 111.264 115.724 111.491 115.821C111.718 115.917 111.923 116.059 112.094 116.237C112.264 116.415 112.397 116.626 112.483 116.857C112.569 117.088 112.608 117.335 112.596 117.581L112.085 128.817C112.057 129.328 111.836 129.808 111.467 130.162C111.098 130.516 110.609 130.716 110.098 130.723Z" fill="#407BFF"/>
<path d="M127.244 130.723H116.012C115.766 130.724 115.521 130.674 115.294 130.578C115.067 130.481 114.862 130.34 114.692 130.161C114.521 129.983 114.389 129.772 114.303 129.541C114.216 129.31 114.178 129.064 114.19 128.818L114.676 117.581C114.705 117.07 114.927 116.59 115.297 116.236C115.667 115.883 116.157 115.682 116.669 115.676H127.9C128.147 115.674 128.391 115.723 128.618 115.819C128.845 115.916 129.05 116.057 129.221 116.236C129.391 116.414 129.523 116.626 129.608 116.857C129.694 117.088 129.731 117.335 129.718 117.581L129.232 128.818C129.202 129.327 128.981 129.807 128.612 130.161C128.244 130.514 127.755 130.715 127.244 130.723Z" fill="#407BFF"/>
<path d="M144.395 130.723H133.178C132.931 130.724 132.687 130.675 132.46 130.579C132.232 130.483 132.027 130.341 131.856 130.163C131.686 129.985 131.553 129.773 131.467 129.542C131.381 129.311 131.343 129.064 131.356 128.817L131.842 117.581C131.87 117.071 132.091 116.59 132.46 116.236C132.829 115.883 133.318 115.682 133.83 115.676H145.066C145.313 115.675 145.557 115.724 145.783 115.821C146.01 115.917 146.215 116.059 146.385 116.237C146.555 116.416 146.687 116.627 146.773 116.858C146.859 117.089 146.896 117.335 146.884 117.581L146.398 128.817C146.368 129.33 146.145 129.812 145.773 130.166C145.401 130.519 144.909 130.719 144.395 130.723Z" fill="#407BFF"/>
<path d="M161.547 130.723H150.31C150.064 130.724 149.82 130.674 149.593 130.578C149.366 130.481 149.161 130.34 148.991 130.161C148.821 129.983 148.689 129.772 148.603 129.541C148.518 129.31 148.48 129.064 148.492 128.818L148.978 117.581C149.008 117.07 149.23 116.59 149.6 116.236C149.969 115.883 150.459 115.682 150.971 115.676H162.203C162.45 115.674 162.694 115.723 162.921 115.819C163.149 115.915 163.354 116.057 163.525 116.235C163.695 116.414 163.828 116.625 163.914 116.857C164 117.088 164.038 117.334 164.025 117.581L163.539 128.818C163.509 129.328 163.286 129.808 162.917 130.161C162.547 130.514 162.058 130.715 161.547 130.723Z" fill="#407BFF"/>
<path d="M178.693 130.723H167.461C167.215 130.724 166.97 130.676 166.743 130.579C166.516 130.483 166.311 130.341 166.141 130.163C165.971 129.984 165.839 129.773 165.753 129.542C165.668 129.31 165.63 129.064 165.644 128.817L166.13 117.581C166.159 117.07 166.381 116.59 166.751 116.236C167.121 115.883 167.611 115.682 168.122 115.676H179.354C179.601 115.675 179.845 115.724 180.072 115.821C180.299 115.917 180.504 116.059 180.674 116.237C180.845 116.415 180.977 116.626 181.064 116.857C181.15 117.088 181.188 117.335 181.176 117.581L180.666 128.817C180.638 129.325 180.419 129.804 180.053 130.157C179.687 130.51 179.201 130.712 178.693 130.723Z" fill="#407BFF"/>
<g opacity="0.8">
<path d="M92.9463 130.723H81.7098C81.4634 130.724 81.2193 130.674 80.9925 130.578C80.7658 130.481 80.5611 130.34 80.391 130.161C80.2208 129.983 80.0889 129.772 80.0031 129.541C79.9173 129.31 79.8796 129.064 79.8921 128.817L80.3781 117.581C80.4076 117.07 80.6296 116.59 80.9994 116.236C81.3692 115.883 81.8592 115.682 82.3708 115.676H93.6073C93.8538 115.675 94.0978 115.724 94.3246 115.821C94.5513 115.917 94.756 116.059 94.9261 116.237C95.0963 116.416 95.2282 116.627 95.314 116.858C95.3998 117.089 95.4375 117.335 95.425 117.581L94.939 128.817C94.9084 129.328 94.686 129.808 94.3165 130.161C93.947 130.514 93.4575 130.715 92.9463 130.723Z" fill="#FAFAFA"/>
<path d="M110.098 130.723H98.8611C98.6144 130.724 98.37 130.676 98.143 130.579C97.9159 130.483 97.7109 130.341 97.5406 130.163C97.3704 129.984 97.2384 129.773 97.1529 129.542C97.0674 129.31 97.0301 129.064 97.0434 128.817L97.5294 117.581C97.5589 117.07 97.7809 116.59 98.1507 116.236C98.5204 115.883 99.0105 115.682 99.522 115.676H110.773C111.02 115.675 111.264 115.724 111.491 115.821C111.718 115.917 111.923 116.059 112.094 116.237C112.264 116.415 112.397 116.626 112.483 116.857C112.569 117.088 112.608 117.335 112.596 117.581L112.085 128.817C112.057 129.328 111.836 129.808 111.467 130.162C111.098 130.516 110.609 130.716 110.098 130.723Z" fill="#FAFAFA"/>
<path d="M127.244 130.723H116.012C115.766 130.724 115.521 130.674 115.294 130.578C115.067 130.481 114.862 130.34 114.692 130.161C114.521 129.983 114.389 129.772 114.303 129.541C114.216 129.31 114.178 129.064 114.19 128.818L114.676 117.581C114.705 117.07 114.927 116.59 115.297 116.236C115.667 115.883 116.157 115.682 116.669 115.676H127.9C128.147 115.674 128.391 115.723 128.618 115.819C128.845 115.916 129.05 116.057 129.221 116.236C129.391 116.414 129.523 116.626 129.608 116.857C129.694 117.088 129.731 117.335 129.718 117.581L129.232 128.818C129.202 129.327 128.981 129.807 128.612 130.161C128.244 130.514 127.755 130.715 127.244 130.723Z" fill="#FAFAFA"/>
<path d="M144.395 130.723H133.178C132.931 130.724 132.687 130.675 132.46 130.579C132.232 130.483 132.027 130.341 131.856 130.163C131.686 129.985 131.553 129.773 131.467 129.542C131.381 129.311 131.343 129.064 131.356 128.817L131.842 117.581C131.87 117.071 132.091 116.59 132.46 116.236C132.829 115.883 133.318 115.682 133.83 115.676H145.066C145.313 115.675 145.557 115.724 145.783 115.821C146.01 115.917 146.215 116.059 146.385 116.237C146.555 116.416 146.687 116.627 146.773 116.858C146.859 117.089 146.896 117.335 146.884 117.581L146.398 128.817C146.368 129.33 146.145 129.812 145.773 130.166C145.401 130.519 144.909 130.719 144.395 130.723Z" fill="#FAFAFA"/>
<path d="M161.547 130.723H150.31C150.064 130.724 149.82 130.674 149.593 130.578C149.366 130.481 149.161 130.34 148.991 130.161C148.821 129.983 148.689 129.772 148.603 129.541C148.518 129.31 148.48 129.064 148.492 128.818L148.978 117.581C149.008 117.07 149.23 116.59 149.6 116.236C149.969 115.883 150.459 115.682 150.971 115.676H162.203C162.45 115.674 162.694 115.723 162.921 115.819C163.149 115.915 163.354 116.057 163.525 116.235C163.695 116.414 163.828 116.625 163.914 116.857C164 117.088 164.038 117.334 164.025 117.581L163.539 128.818C163.509 129.328 163.286 129.808 162.917 130.161C162.547 130.514 162.058 130.715 161.547 130.723Z" fill="#FAFAFA"/>
<path d="M178.693 130.723H167.461C167.215 130.724 166.97 130.676 166.743 130.579C166.516 130.483 166.311 130.341 166.141 130.163C165.971 129.984 165.839 129.773 165.753 129.542C165.668 129.31 165.63 129.064 165.644 128.817L166.13 117.581C166.159 117.07 166.381 116.59 166.751 116.236C167.121 115.883 167.611 115.682 168.122 115.676H179.354C179.601 115.675 179.845 115.724 180.072 115.821C180.299 115.917 180.504 116.059 180.674 116.237C180.845 116.415 180.977 116.626 181.064 116.857C181.15 117.088 181.188 117.335 181.176 117.581L180.666 128.817C180.638 129.325 180.419 129.804 180.053 130.157C179.687 130.51 179.201 130.712 178.693 130.723Z" fill="#FAFAFA"/>
</g>
<path d="M92.159 148.156H80.9224C80.676 148.157 80.4319 148.107 80.2052 148.011C79.9784 147.914 79.7737 147.773 79.6036 147.594C79.4335 147.416 79.3015 147.205 79.2157 146.974C79.13 146.743 79.0922 146.497 79.1048 146.251L79.5908 135.014C79.6214 134.504 79.8437 134.024 80.2133 133.67C80.5828 133.317 81.0722 133.117 81.5834 133.109H92.8394C93.0858 133.108 93.3299 133.157 93.5567 133.254C93.7834 133.35 93.9881 133.492 94.1582 133.67C94.3283 133.849 94.4603 134.06 94.5461 134.291C94.6319 134.522 94.6696 134.768 94.6571 135.014L94.1711 146.251C94.1402 146.764 93.9151 147.247 93.5415 147.601C93.1678 147.955 92.6736 148.153 92.159 148.156Z" fill="#407BFF"/>
<path d="M109.31 148.156H98.0737C97.8272 148.157 97.5832 148.107 97.3564 148.011C97.1297 147.914 96.925 147.773 96.7549 147.594C96.5847 147.416 96.4528 147.205 96.367 146.974C96.2812 146.743 96.2435 146.497 96.256 146.251L96.742 135.014C96.7715 134.503 96.9935 134.023 97.3633 133.669C97.7331 133.316 98.2231 133.115 98.7347 133.109H109.966C110.215 133.107 110.462 133.157 110.691 133.254C110.92 133.351 111.126 133.495 111.297 133.675C111.469 133.855 111.601 134.069 111.686 134.303C111.772 134.536 111.808 134.785 111.794 135.034L111.308 146.251C111.279 146.763 111.057 147.245 110.686 147.598C110.315 147.952 109.823 148.152 109.31 148.156Z" fill="#407BFF"/>
<path d="M126.457 148.156H115.225C114.978 148.157 114.734 148.109 114.507 148.012C114.28 147.916 114.075 147.774 113.905 147.596C113.734 147.417 113.602 147.206 113.517 146.975C113.431 146.743 113.394 146.497 113.407 146.251L113.893 135.014C113.923 134.503 114.145 134.023 114.515 133.669C114.884 133.316 115.374 133.115 115.886 133.109H127.118C127.364 133.107 127.609 133.156 127.836 133.252C128.063 133.349 128.268 133.49 128.438 133.669C128.608 133.847 128.74 134.059 128.826 134.29C128.911 134.521 128.949 134.768 128.935 135.014L128.449 146.251C128.42 146.761 128.198 147.242 127.828 147.595C127.458 147.949 126.968 148.149 126.457 148.156Z" fill="#407BFF"/>
<path d="M143.608 148.156H132.376C132.13 148.157 131.885 148.108 131.658 148.011C131.431 147.915 131.226 147.773 131.056 147.595C130.885 147.417 130.753 147.206 130.667 146.975C130.58 146.743 130.542 146.497 130.554 146.251L131.04 135.014C131.068 134.504 131.289 134.023 131.658 133.67C132.027 133.316 132.516 133.116 133.028 133.109H144.264C144.514 133.105 144.763 133.152 144.994 133.248C145.225 133.344 145.433 133.487 145.606 133.668C145.779 133.849 145.913 134.064 145.999 134.299C146.085 134.534 146.122 134.784 146.106 135.034L145.62 146.27C145.586 146.781 145.359 147.259 144.985 147.609C144.612 147.959 144.12 148.155 143.608 148.156Z" fill="#407BFF"/>
<path d="M160.759 148.156H149.523C149.276 148.157 149.032 148.107 148.805 148.011C148.579 147.914 148.374 147.773 148.204 147.594C148.034 147.416 147.902 147.205 147.816 146.974C147.73 146.743 147.692 146.497 147.705 146.25L148.191 135.014C148.217 134.499 148.438 134.014 148.809 133.656C149.18 133.299 149.673 133.096 150.188 133.089H161.425C161.671 133.088 161.916 133.138 162.142 133.234C162.369 133.331 162.574 133.472 162.744 133.651C162.914 133.829 163.046 134.04 163.132 134.271C163.217 134.502 163.255 134.748 163.243 134.995L162.757 146.231C162.731 146.746 162.51 147.231 162.139 147.589C161.768 147.946 161.274 148.149 160.759 148.156Z" fill="#407BFF"/>
<path d="M177.891 148.156H166.674C166.427 148.157 166.183 148.109 165.956 148.012C165.729 147.916 165.524 147.774 165.354 147.596C165.183 147.417 165.051 147.206 164.966 146.975C164.88 146.743 164.843 146.497 164.856 146.251L165.342 135.014C165.372 134.503 165.594 134.023 165.964 133.669C166.333 133.316 166.823 133.115 167.335 133.109H178.567C178.813 133.108 179.058 133.157 179.285 133.254C179.512 133.35 179.717 133.492 179.887 133.67C180.058 133.848 180.19 134.059 180.276 134.29C180.363 134.521 180.401 134.768 180.389 135.014L179.879 146.251C179.851 146.761 179.63 147.241 179.261 147.595C178.892 147.949 178.402 148.149 177.891 148.156Z" fill="#407BFF"/>
<g opacity="0.8">
<path d="M92.159 148.156H80.9224C80.676 148.157 80.4319 148.107 80.2052 148.011C79.9784 147.914 79.7737 147.773 79.6036 147.594C79.4335 147.416 79.3015 147.205 79.2157 146.974C79.13 146.743 79.0922 146.497 79.1048 146.251L79.5908 135.014C79.6214 134.504 79.8437 134.024 80.2133 133.67C80.5828 133.317 81.0722 133.117 81.5834 133.109H92.8394C93.0858 133.108 93.3299 133.157 93.5567 133.254C93.7834 133.35 93.9881 133.492 94.1582 133.67C94.3283 133.849 94.4603 134.06 94.5461 134.291C94.6319 134.522 94.6696 134.768 94.6571 135.014L94.1711 146.251C94.1402 146.764 93.9151 147.247 93.5415 147.601C93.1678 147.955 92.6736 148.153 92.159 148.156Z" fill="#FAFAFA"/>
<path d="M109.31 148.156H98.0737C97.8272 148.157 97.5832 148.107 97.3564 148.011C97.1297 147.914 96.925 147.773 96.7549 147.594C96.5847 147.416 96.4528 147.205 96.367 146.974C96.2812 146.743 96.2435 146.497 96.256 146.251L96.742 135.014C96.7715 134.503 96.9935 134.023 97.3633 133.669C97.7331 133.316 98.2231 133.115 98.7347 133.109H109.966C110.215 133.107 110.462 133.157 110.691 133.254C110.92 133.351 111.126 133.495 111.297 133.675C111.469 133.855 111.601 134.069 111.686 134.303C111.772 134.536 111.808 134.785 111.794 135.034L111.308 146.251C111.279 146.763 111.057 147.245 110.686 147.598C110.315 147.952 109.823 148.152 109.31 148.156Z" fill="#FAFAFA"/>
<path d="M126.457 148.156H115.225C114.978 148.157 114.734 148.109 114.507 148.012C114.28 147.916 114.075 147.774 113.905 147.596C113.734 147.417 113.602 147.206 113.517 146.975C113.431 146.743 113.394 146.497 113.407 146.251L113.893 135.014C113.923 134.503 114.145 134.023 114.515 133.669C114.884 133.316 115.374 133.115 115.886 133.109H127.118C127.364 133.107 127.609 133.156 127.836 133.252C128.063 133.349 128.268 133.49 128.438 133.669C128.608 133.847 128.74 134.059 128.826 134.29C128.911 134.521 128.949 134.768 128.935 135.014L128.449 146.251C128.42 146.761 128.198 147.242 127.828 147.595C127.458 147.949 126.968 148.149 126.457 148.156Z" fill="#FAFAFA"/>
<path d="M143.608 148.156H132.376C132.13 148.156 131.885 148.107 131.658 148.011C131.431 147.914 131.226 147.773 131.056 147.594C130.885 147.416 130.753 147.205 130.667 146.974C130.58 146.743 130.542 146.497 130.554 146.25L131.04 135.014C131.068 134.504 131.289 134.023 131.658 133.669C132.027 133.316 132.516 133.115 133.028 133.109H144.264C144.514 133.104 144.763 133.152 144.994 133.248C145.225 133.344 145.433 133.487 145.606 133.668C145.779 133.849 145.913 134.063 145.999 134.298C146.085 134.533 146.122 134.784 146.106 135.033L145.62 146.27C145.586 146.78 145.359 147.259 144.985 147.609C144.612 147.959 144.12 148.154 143.608 148.156Z" fill="#FAFAFA"/>
<path d="M160.759 148.156H149.523C149.276 148.157 149.032 148.107 148.805 148.011C148.579 147.914 148.374 147.773 148.204 147.594C148.034 147.416 147.902 147.205 147.816 146.974C147.73 146.743 147.692 146.497 147.705 146.25L148.191 135.014C148.217 134.499 148.438 134.014 148.809 133.656C149.18 133.299 149.673 133.096 150.188 133.089H161.425C161.671 133.088 161.916 133.138 162.142 133.234C162.369 133.331 162.574 133.472 162.744 133.651C162.914 133.829 163.046 134.04 163.132 134.271C163.217 134.502 163.255 134.748 163.243 134.995L162.757 146.231C162.731 146.746 162.51 147.231 162.139 147.589C161.768 147.946 161.274 148.149 160.759 148.156Z" fill="#FAFAFA"/>
<path d="M177.891 148.156H166.674C166.427 148.157 166.183 148.109 165.956 148.012C165.729 147.916 165.524 147.774 165.354 147.596C165.183 147.417 165.051 147.206 164.966 146.975C164.88 146.743 164.843 146.497 164.856 146.251L165.342 135.014C165.372 134.503 165.594 134.023 165.964 133.669C166.333 133.316 166.823 133.115 167.335 133.109H178.567C178.813 133.108 179.058 133.157 179.285 133.254C179.512 133.35 179.717 133.492 179.887 133.67C180.058 133.848 180.19 134.059 180.276 134.29C180.363 134.521 180.401 134.768 180.389 135.014L179.879 146.251C179.851 146.761 179.63 147.241 179.261 147.595C178.892 147.949 178.402 148.149 177.891 148.156Z" fill="#FAFAFA"/>
</g>
<path d="M91.3815 165.584H80.1352C79.8886 165.586 79.6442 165.537 79.4171 165.441C79.19 165.344 78.9851 165.203 78.8148 165.024C78.6445 164.846 78.5126 164.634 78.4271 164.403C78.3416 164.172 78.3043 163.925 78.3176 163.679L78.8036 152.447C78.833 151.936 79.055 151.456 79.4248 151.102C79.7946 150.749 80.2847 150.549 80.7962 150.542H92.0327C92.2794 150.54 92.5238 150.589 92.7509 150.685C92.9779 150.782 93.1829 150.923 93.3532 151.102C93.5234 151.28 93.6554 151.492 93.7409 151.723C93.8264 151.954 93.8637 152.201 93.8504 152.447L93.3644 163.679C93.3362 164.188 93.1159 164.668 92.7479 165.022C92.38 165.375 91.8917 165.576 91.3815 165.584Z" fill="#407BFF"/>
<path d="M108.523 165.584H97.2865C97.0398 165.586 96.7955 165.537 96.5684 165.441C96.3413 165.344 96.1363 165.203 95.966 165.024C95.7958 164.846 95.6638 164.634 95.5783 164.403C95.4928 164.172 95.4555 163.925 95.4688 163.679L95.9548 152.447C95.9832 151.936 96.2048 151.455 96.5748 151.101C96.9448 150.747 97.4355 150.547 97.9474 150.542H109.179C109.426 150.54 109.671 150.588 109.899 150.684C110.126 150.78 110.332 150.922 110.503 151.1C110.674 151.279 110.806 151.49 110.892 151.722C110.978 151.954 111.015 152.201 111.002 152.447L110.516 163.679C110.488 164.19 110.267 164.672 109.897 165.026C109.527 165.38 109.035 165.58 108.523 165.584Z" fill="#407BFF"/>
<path d="M125.669 165.584H114.438C114.191 165.586 113.947 165.537 113.72 165.441C113.493 165.344 113.288 165.203 113.117 165.024C112.947 164.846 112.815 164.634 112.73 164.403C112.644 164.172 112.607 163.925 112.62 163.679L113.106 152.447C113.134 151.936 113.356 151.455 113.726 151.101C114.096 150.747 114.587 150.547 115.099 150.542H126.374C126.621 150.54 126.866 150.589 127.093 150.685C127.32 150.782 127.525 150.923 127.696 151.102C127.867 151.28 127.999 151.491 128.085 151.723C128.171 151.954 128.209 152.201 128.197 152.447L127.686 163.679C127.658 164.194 127.433 164.679 127.057 165.033C126.682 165.388 126.186 165.585 125.669 165.584Z" fill="#407BFF"/>
<path d="M142.821 165.584H131.589C131.342 165.586 131.098 165.537 130.87 165.441C130.643 165.344 130.438 165.203 130.267 165.024C130.096 164.846 129.964 164.635 129.878 164.403C129.792 164.172 129.754 163.925 129.767 163.679L130.253 152.447C130.28 151.936 130.5 151.455 130.87 151.101C131.239 150.747 131.729 150.547 132.24 150.542H143.477C143.723 150.54 143.968 150.589 144.195 150.685C144.422 150.782 144.627 150.923 144.797 151.102C144.968 151.28 145.099 151.492 145.185 151.723C145.27 151.954 145.308 152.201 145.295 152.447L144.808 163.679C144.78 164.189 144.559 164.67 144.19 165.023C143.821 165.377 143.332 165.577 142.821 165.584Z" fill="#407BFF"/>
<path d="M159.972 165.584H148.73C148.484 165.586 148.239 165.537 148.012 165.441C147.785 165.344 147.58 165.203 147.41 165.024C147.24 164.846 147.108 164.634 147.022 164.403C146.937 164.172 146.9 163.925 146.913 163.679L147.399 152.447C147.428 151.936 147.65 151.456 148.02 151.102C148.39 150.749 148.88 150.549 149.391 150.542H160.628C160.875 150.54 161.119 150.589 161.346 150.685C161.573 150.782 161.778 150.923 161.948 151.102C162.119 151.28 162.251 151.492 162.336 151.723C162.422 151.954 162.459 152.201 162.446 152.447L161.96 163.679C161.93 164.189 161.709 164.669 161.34 165.022C160.971 165.376 160.483 165.576 159.972 165.584Z" fill="#407BFF"/>
<path d="M177.123 165.584H165.887C165.64 165.586 165.396 165.537 165.169 165.441C164.942 165.344 164.737 165.203 164.566 165.024C164.396 164.846 164.264 164.634 164.179 164.403C164.093 164.172 164.056 163.925 164.069 163.679L164.555 152.447C164.583 151.936 164.805 151.455 165.175 151.101C165.545 150.747 166.036 150.547 166.548 150.542H177.779C178.026 150.54 178.271 150.589 178.498 150.685C178.725 150.782 178.931 150.923 179.101 151.102C179.272 151.28 179.404 151.491 179.49 151.723C179.577 151.954 179.614 152.201 179.602 152.447L179.092 163.679C179.065 164.186 178.847 164.665 178.482 165.018C178.117 165.372 177.631 165.574 177.123 165.584Z" fill="#407BFF"/>
<g opacity="0.8">
<path d="M91.3815 165.585H80.1352C79.8886 165.586 79.6442 165.537 79.4171 165.441C79.19 165.345 78.9851 165.203 78.8148 165.025C78.6445 164.846 78.5126 164.635 78.4271 164.403C78.3416 164.172 78.3043 163.926 78.3176 163.679L78.8036 152.448C78.833 151.937 79.055 151.456 79.4248 151.103C79.7946 150.749 80.2847 150.549 80.7962 150.543H92.0327C92.2794 150.541 92.5238 150.59 92.7509 150.686C92.9779 150.782 93.1829 150.924 93.3532 151.102C93.5234 151.281 93.6554 151.492 93.7409 151.724C93.8264 151.955 93.8637 152.201 93.8504 152.448L93.3644 163.679C93.3362 164.189 93.1159 164.669 92.7479 165.022C92.38 165.376 91.8917 165.577 91.3815 165.585Z" fill="#FAFAFA"/>
<path d="M108.523 165.584H97.2865C97.0398 165.586 96.7955 165.537 96.5684 165.441C96.3413 165.344 96.1363 165.203 95.966 165.024C95.7958 164.846 95.6638 164.634 95.5783 164.403C95.4928 164.172 95.4555 163.925 95.4688 163.679L95.9548 152.447C95.9832 151.936 96.2048 151.455 96.5748 151.101C96.9448 150.747 97.4355 150.547 97.9474 150.542H109.179C109.426 150.54 109.671 150.588 109.899 150.684C110.126 150.78 110.332 150.922 110.503 151.1C110.674 151.279 110.806 151.49 110.892 151.722C110.978 151.954 111.015 152.201 111.002 152.447L110.516 163.679C110.488 164.19 110.267 164.672 109.897 165.026C109.527 165.38 109.035 165.58 108.523 165.584Z" fill="#FAFAFA"/>
<path d="M125.669 165.584H114.438C114.191 165.586 113.947 165.537 113.72 165.441C113.493 165.344 113.288 165.203 113.117 165.024C112.947 164.846 112.815 164.634 112.73 164.403C112.644 164.172 112.607 163.925 112.62 163.679L113.106 152.447C113.134 151.936 113.356 151.455 113.726 151.101C114.096 150.747 114.587 150.547 115.099 150.542H126.374C126.621 150.54 126.866 150.589 127.093 150.685C127.32 150.782 127.525 150.923 127.696 151.102C127.867 151.28 127.999 151.491 128.085 151.723C128.171 151.954 128.209 152.201 128.197 152.447L127.686 163.679C127.658 164.194 127.433 164.679 127.057 165.033C126.682 165.388 126.186 165.585 125.669 165.584Z" fill="#FAFAFA"/>
<path d="M142.821 165.584H131.589C131.342 165.586 131.098 165.537 130.87 165.441C130.643 165.344 130.438 165.203 130.267 165.024C130.096 164.846 129.964 164.635 129.878 164.403C129.792 164.172 129.754 163.925 129.767 163.679L130.253 152.447C130.28 151.936 130.5 151.455 130.87 151.101C131.239 150.747 131.729 150.547 132.24 150.542H143.477C143.723 150.54 143.968 150.589 144.195 150.685C144.422 150.782 144.627 150.923 144.797 151.102C144.968 151.28 145.099 151.492 145.185 151.723C145.27 151.954 145.308 152.201 145.295 152.447L144.808 163.679C144.78 164.189 144.559 164.67 144.19 165.023C143.821 165.377 143.332 165.577 142.821 165.584Z" fill="#FAFAFA"/>
<path d="M159.972 165.584H148.73C148.484 165.586 148.239 165.537 148.012 165.441C147.785 165.344 147.58 165.203 147.41 165.024C147.24 164.846 147.108 164.634 147.022 164.403C146.937 164.172 146.9 163.925 146.913 163.679L147.399 152.447C147.428 151.936 147.65 151.456 148.02 151.102C148.39 150.749 148.88 150.549 149.391 150.542H160.628C160.875 150.54 161.119 150.589 161.346 150.685C161.573 150.782 161.778 150.923 161.948 151.102C162.119 151.28 162.251 151.492 162.336 151.723C162.422 151.954 162.459 152.201 162.446 152.447L161.96 163.679C161.93 164.189 161.709 164.669 161.34 165.022C160.971 165.376 160.483 165.576 159.972 165.584Z" fill="#FAFAFA"/>
<path d="M177.123 165.584H165.887C165.64 165.586 165.396 165.537 165.169 165.441C164.942 165.344 164.737 165.203 164.566 165.024C164.396 164.846 164.264 164.634 164.179 164.403C164.093 164.172 164.056 163.925 164.069 163.679L164.555 152.447C164.583 151.936 164.805 151.455 165.175 151.101C165.545 150.747 166.036 150.547 166.548 150.542H177.779C178.026 150.54 178.271 150.589 178.498 150.685C178.725 150.782 178.931 150.923 179.101 151.102C179.272 151.28 179.404 151.491 179.49 151.723C179.577 151.954 179.614 152.201 179.602 152.447L179.092 163.679C179.065 164.186 178.847 164.665 178.482 165.018C178.117 165.372 177.631 165.574 177.123 165.584Z" fill="#FAFAFA"/>
</g>
<path d="M88.198 106.573C84.0572 106.573 80.8107 101.756 80.8107 95.6084C80.8107 89.4604 84.0572 84.6489 88.198 84.6489C92.3388 84.6489 95.5902 89.4653 95.5902 95.6084C95.5713 95.8966 95.4436 96.1667 95.2328 96.3641C95.0221 96.5615 94.7441 96.6714 94.4554 96.6714C94.1666 96.6714 93.8887 96.5615 93.6779 96.3641C93.4672 96.1667 93.3394 95.8966 93.3206 95.6084C93.3206 90.899 90.978 86.9137 88.198 86.9137C85.418 86.9137 83.0755 90.899 83.0755 95.6084C83.0755 100.318 85.4229 104.303 88.198 104.303C88.3533 104.293 88.509 104.315 88.6555 104.367C88.802 104.42 88.9362 104.502 89.0498 104.608C89.1633 104.714 89.2539 104.843 89.3158 104.986C89.3776 105.128 89.4096 105.282 89.4096 105.438C89.4096 105.594 89.3776 105.748 89.3158 105.89C89.2539 106.033 89.1633 106.162 89.0498 106.268C88.9362 106.374 88.802 106.456 88.6555 106.509C88.509 106.561 88.3533 106.583 88.198 106.573Z" fill="#407BFF"/>
<path d="M105.349 106.573C101.208 106.573 97.9619 101.756 97.9619 95.6084C97.9619 89.4604 101.208 84.6489 105.349 84.6489C109.49 84.6489 112.766 89.4653 112.766 95.6084C112.747 95.8966 112.619 96.1667 112.408 96.3641C112.198 96.5615 111.92 96.6714 111.631 96.6714C111.342 96.6714 111.064 96.5615 110.853 96.3641C110.643 96.1667 110.515 95.8966 110.496 95.6084C110.496 90.899 108.154 86.9137 105.374 86.9137C102.594 86.9137 100.251 90.899 100.251 95.6084C100.251 100.318 102.598 104.303 105.374 104.303C105.662 104.322 105.932 104.45 106.129 104.661C106.327 104.871 106.437 105.149 106.437 105.438C106.437 105.727 106.327 106.005 106.129 106.215C105.932 106.426 105.662 106.554 105.374 106.573H105.349Z" fill="#407BFF"/>
<path d="M122.486 106.573C118.34 106.573 115.094 101.756 115.094 95.6084C115.094 89.4604 118.34 84.6489 122.486 84.6489C126.632 84.6489 129.873 89.4653 129.873 95.6084C129.873 95.9088 129.754 96.1968 129.542 96.4092C129.329 96.6215 129.041 96.7408 128.741 96.7408C128.441 96.7408 128.153 96.6215 127.94 96.4092C127.728 96.1968 127.608 95.9088 127.608 95.6084C127.608 90.899 125.261 86.9137 122.486 86.9137C119.711 86.9137 117.363 90.899 117.363 95.6084C117.363 100.318 119.711 104.303 122.486 104.303C122.774 104.322 123.044 104.45 123.242 104.661C123.439 104.871 123.549 105.149 123.549 105.438C123.549 105.727 123.439 106.005 123.242 106.215C123.044 106.426 122.774 106.554 122.486 106.573Z" fill="#407BFF"/>
<path d="M139.652 106.573C135.506 106.573 132.26 101.756 132.26 95.6084C132.26 89.4604 135.506 84.6489 139.652 84.6489C143.798 84.6489 147.039 89.4653 147.039 95.6084C147.039 95.9088 146.92 96.1968 146.708 96.4092C146.495 96.6215 146.207 96.7408 145.907 96.7408C145.606 96.7408 145.318 96.6215 145.106 96.4092C144.894 96.1968 144.774 95.9088 144.774 95.6084C144.774 90.899 142.427 86.9137 139.652 86.9137C136.877 86.9137 134.529 90.899 134.529 95.6084C134.529 100.318 136.872 104.303 139.652 104.303C139.94 104.322 140.21 104.45 140.408 104.661C140.605 104.871 140.715 105.149 140.715 105.438C140.715 105.727 140.605 106.005 140.408 106.215C140.21 106.426 139.94 106.554 139.652 106.573Z" fill="#407BFF"/>
<path d="M156.798 106.573C152.657 106.573 149.411 101.756 149.411 95.6084C149.411 89.4604 152.657 84.6489 156.798 84.6489C160.939 84.6489 164.19 89.4653 164.19 95.6084C164.172 95.8966 164.044 96.1667 163.833 96.3641C163.622 96.5615 163.344 96.6714 163.056 96.6714C162.767 96.6714 162.489 96.5615 162.278 96.3641C162.067 96.1667 161.94 95.8966 161.921 95.6084C161.921 90.899 159.578 86.9137 156.798 86.9137C154.018 86.9137 151.676 90.899 151.676 95.6084C151.676 100.318 154.023 104.303 156.798 104.303C156.954 104.293 157.109 104.315 157.256 104.367C157.402 104.42 157.536 104.502 157.65 104.608C157.764 104.714 157.854 104.843 157.916 104.986C157.978 105.128 158.01 105.282 158.01 105.438C158.01 105.594 157.978 105.748 157.916 105.89C157.854 106.033 157.764 106.162 157.65 106.268C157.536 106.374 157.402 106.456 157.256 106.509C157.109 106.561 156.954 106.583 156.798 106.573Z" fill="#407BFF"/>
<path d="M173.95 106.573C169.809 106.573 166.562 101.756 166.562 95.6084C166.562 89.4604 169.809 84.6489 173.95 84.6489C178.09 84.6489 181.342 89.4653 181.342 95.6084C181.323 95.8966 181.195 96.1667 180.984 96.3641C180.774 96.5615 180.496 96.6714 180.207 96.6714C179.918 96.6714 179.64 96.5615 179.43 96.3641C179.219 96.1667 179.091 95.8966 179.072 95.6084C179.072 90.899 176.725 86.9137 173.95 86.9137C171.174 86.9137 168.827 90.899 168.827 95.6084C168.827 100.318 171.174 104.303 173.95 104.303C174.238 104.322 174.508 104.45 174.705 104.661C174.903 104.871 175.013 105.149 175.013 105.438C175.013 105.727 174.903 106.005 174.705 106.215C174.508 106.426 174.238 106.554 173.95 106.573Z" fill="#407BFF"/>
<g opacity="0.3">
<path d="M88.198 106.573C84.0572 106.573 80.8107 101.756 80.8107 95.6084C80.8107 89.4604 84.0572 84.6489 88.198 84.6489C92.3388 84.6489 95.5902 89.4653 95.5902 95.6084C95.5713 95.8966 95.4436 96.1667 95.2328 96.3641C95.0221 96.5615 94.7441 96.6714 94.4554 96.6714C94.1666 96.6714 93.8887 96.5615 93.6779 96.3641C93.4672 96.1667 93.3394 95.8966 93.3206 95.6084C93.3206 90.899 90.978 86.9137 88.198 86.9137C85.418 86.9137 83.0755 90.899 83.0755 95.6084C83.0755 100.318 85.4229 104.303 88.198 104.303C88.3533 104.293 88.509 104.315 88.6555 104.367C88.802 104.42 88.9362 104.502 89.0498 104.608C89.1633 104.714 89.2539 104.843 89.3158 104.986C89.3776 105.128 89.4096 105.282 89.4096 105.438C89.4096 105.594 89.3776 105.748 89.3158 105.89C89.2539 106.033 89.1633 106.162 89.0498 106.268C88.9362 106.374 88.802 106.456 88.6555 106.509C88.509 106.561 88.3533 106.583 88.198 106.573Z" fill="black"/>
<path d="M105.349 106.573C101.208 106.573 97.9619 101.756 97.9619 95.6084C97.9619 89.4604 101.208 84.6489 105.349 84.6489C109.49 84.6489 112.766 89.4653 112.766 95.6084C112.747 95.8966 112.619 96.1667 112.408 96.3641C112.198 96.5615 111.92 96.6714 111.631 96.6714C111.342 96.6714 111.064 96.5615 110.853 96.3641C110.643 96.1667 110.515 95.8966 110.496 95.6084C110.496 90.899 108.154 86.9137 105.374 86.9137C102.594 86.9137 100.251 90.899 100.251 95.6084C100.251 100.318 102.598 104.303 105.374 104.303C105.662 104.322 105.932 104.45 106.129 104.661C106.327 104.871 106.437 105.149 106.437 105.438C106.437 105.727 106.327 106.005 106.129 106.215C105.932 106.426 105.662 106.554 105.374 106.573H105.349Z" fill="black"/>
<path d="M122.486 106.573C118.34 106.573 115.094 101.756 115.094 95.6084C115.094 89.4604 118.34 84.6489 122.486 84.6489C126.632 84.6489 129.873 89.4653 129.873 95.6084C129.873 95.9088 129.754 96.1968 129.542 96.4092C129.329 96.6215 129.041 96.7408 128.741 96.7408C128.441 96.7408 128.153 96.6215 127.94 96.4092C127.728 96.1968 127.608 95.9088 127.608 95.6084C127.608 90.899 125.261 86.9137 122.486 86.9137C119.711 86.9137 117.363 90.899 117.363 95.6084C117.363 100.318 119.711 104.303 122.486 104.303C122.774 104.322 123.044 104.45 123.242 104.661C123.439 104.871 123.549 105.149 123.549 105.438C123.549 105.727 123.439 106.005 123.242 106.215C123.044 106.426 122.774 106.554 122.486 106.573Z" fill="black"/>
<path d="M139.652 106.573C135.506 106.573 132.26 101.756 132.26 95.6084C132.26 89.4604 135.506 84.6489 139.652 84.6489C143.798 84.6489 147.039 89.4653 147.039 95.6084C147.039 95.9088 146.92 96.1968 146.708 96.4092C146.495 96.6215 146.207 96.7408 145.907 96.7408C145.606 96.7408 145.318 96.6215 145.106 96.4092C144.894 96.1968 144.774 95.9088 144.774 95.6084C144.774 90.899 142.427 86.9137 139.652 86.9137C136.877 86.9137 134.529 90.899 134.529 95.6084C134.529 100.318 136.872 104.303 139.652 104.303C139.94 104.322 140.21 104.45 140.408 104.661C140.605 104.871 140.715 105.149 140.715 105.438C140.715 105.727 140.605 106.005 140.408 106.215C140.21 106.426 139.94 106.554 139.652 106.573Z" fill="black"/>
<path d="M156.798 106.573C152.657 106.573 149.411 101.756 149.411 95.6084C149.411 89.4604 152.657 84.6489 156.798 84.6489C160.939 84.6489 164.19 89.4653 164.19 95.6084C164.172 95.8966 164.044 96.1667 163.833 96.3641C163.622 96.5615 163.344 96.6714 163.056 96.6714C162.767 96.6714 162.489 96.5615 162.278 96.3641C162.067 96.1667 161.94 95.8966 161.921 95.6084C161.921 90.899 159.578 86.9137 156.798 86.9137C154.018 86.9137 151.676 90.899 151.676 95.6084C151.676 100.318 154.023 104.303 156.798 104.303C156.954 104.293 157.109 104.315 157.256 104.367C157.402 104.42 157.536 104.502 157.65 104.608C157.764 104.714 157.854 104.843 157.916 104.986C157.978 105.128 158.01 105.282 158.01 105.438C158.01 105.594 157.978 105.748 157.916 105.89C157.854 106.033 157.764 106.162 157.65 106.268C157.536 106.374 157.402 106.456 157.256 106.509C157.109 106.561 156.954 106.583 156.798 106.573Z" fill="black"/>
<path d="M173.95 106.573C169.809 106.573 166.562 101.756 166.562 95.6084C166.562 89.4604 169.809 84.6489 173.95 84.6489C178.09 84.6489 181.342 89.4653 181.342 95.6084C181.323 95.8966 181.195 96.1667 180.984 96.3641C180.774 96.5615 180.496 96.6714 180.207 96.6714C179.918 96.6714 179.64 96.5615 179.43 96.3641C179.219 96.1667 179.091 95.8966 179.072 95.6084C179.072 90.899 176.725 86.9137 173.95 86.9137C171.174 86.9137 168.827 90.899 168.827 95.6084C168.827 100.318 171.174 104.303 173.95 104.303C174.238 104.322 174.508 104.45 174.705 104.661C174.903 104.871 175.013 105.149 175.013 105.438C175.013 105.727 174.903 106.005 174.705 106.215C174.508 106.426 174.238 106.554 173.95 106.573Z" fill="black"/>
</g>
<path d="M140.799 131.35C136.833 130.562 132.381 131.481 130.792 135.661C129.514 139.024 131.152 142.669 134.68 143.558C137.79 144.341 143.156 143.383 144.264 139.797C145.533 135.695 140.376 134.363 137.484 134.12C136.614 134.047 136.619 135.408 137.484 135.481C138.801 135.593 140.308 135.665 141.474 136.39C143.904 137.911 142.903 140.351 140.833 141.517C138.762 142.683 135.589 142.975 133.543 141.682C131.307 140.258 131.234 137.128 132.571 135.087C134.325 132.39 137.528 132.088 140.415 132.657C141.27 132.827 141.635 131.515 140.775 131.345L140.799 131.35Z" fill="#407BFF"/>
<path opacity="0.1" d="M140.799 131.35C136.833 130.562 132.381 131.481 130.792 135.661C129.514 139.024 131.152 142.669 134.68 143.558C137.79 144.341 143.156 143.383 144.264 139.797C145.533 135.695 140.376 134.363 137.484 134.12C136.614 134.047 136.619 135.408 137.484 135.481C138.801 135.593 140.308 135.665 141.474 136.39C143.904 137.911 142.903 140.351 140.833 141.517C138.762 142.683 135.589 142.975 133.543 141.682C131.307 140.258 131.234 137.128 132.571 135.087C134.325 132.39 137.528 132.088 140.415 132.657C141.27 132.827 141.635 131.515 140.775 131.345L140.799 131.35Z" fill="#FAFAFA"/>
<path d="M97.0435 115.695C100.836 120.723 105.065 125.407 109.68 129.692C110.321 130.29 111.288 129.328 110.652 128.72C106.116 124.52 101.957 119.929 98.2245 115C97.7045 114.31 96.5235 115 97.0532 115.686L97.0435 115.695Z" fill="#407BFF"/>
<path d="M98.448 129.124C101.315 124.026 106.336 119.676 111.084 116.347C111.794 115.861 111.118 114.665 110.399 115.17C105.461 118.641 100.271 123.122 97.2767 128.434C97.1945 128.588 97.1753 128.769 97.2229 128.938C97.2705 129.106 97.3813 129.25 97.5323 129.339C97.6832 129.428 97.8627 129.455 98.0333 129.415C98.2038 129.375 98.3524 129.271 98.448 129.124Z" fill="#407BFF"/>
<g opacity="0.2">
<path d="M97.0435 115.695C100.836 120.723 105.065 125.407 109.68 129.692C110.321 130.29 111.288 129.328 110.652 128.72C106.116 124.52 101.957 119.929 98.2245 115C97.7045 114.31 96.5235 115 97.0532 115.686L97.0435 115.695Z" fill="black"/>
<path d="M98.4481 129.124C101.316 124.026 106.336 119.676 111.084 116.347C111.794 115.861 111.118 114.665 110.399 115.17C105.461 118.641 100.271 123.122 97.2768 128.434C97.1947 128.588 97.1754 128.769 97.223 128.938C97.2706 129.106 97.3814 129.25 97.5324 129.339C97.6834 129.428 97.8628 129.455 98.0334 129.415C98.204 129.375 98.3525 129.271 98.4481 129.124Z" fill="black"/>
</g>
<path d="M151.097 120.045H159.967C160.137 120.031 160.295 119.953 160.411 119.827C160.526 119.702 160.59 119.537 160.59 119.367C160.59 119.196 160.526 119.032 160.411 118.907C160.295 118.781 160.137 118.703 159.967 118.689H151.097C150.927 118.703 150.769 118.781 150.654 118.907C150.538 119.032 150.474 119.196 150.474 119.367C150.474 119.537 150.538 119.702 150.654 119.827C150.769 119.953 150.927 120.031 151.097 120.045Z" fill="#407BFF"/>
<path d="M150.995 122.567H156.137C156.318 122.567 156.491 122.496 156.618 122.368C156.746 122.24 156.818 122.067 156.818 121.887C156.818 121.707 156.746 121.533 156.618 121.406C156.491 121.278 156.318 121.207 156.137 121.207H150.995C150.815 121.207 150.642 121.278 150.514 121.406C150.387 121.533 150.315 121.707 150.315 121.887C150.315 122.067 150.387 122.24 150.514 122.368C150.642 122.496 150.815 122.567 150.995 122.567Z" fill="#407BFF"/>
<g opacity="0.1">
<path d="M151.097 120.045H159.967C160.137 120.031 160.295 119.953 160.411 119.827C160.526 119.702 160.59 119.537 160.59 119.367C160.59 119.196 160.526 119.032 160.411 118.907C160.295 118.781 160.137 118.703 159.967 118.689H151.097C150.927 118.703 150.769 118.781 150.654 118.907C150.538 119.032 150.474 119.196 150.474 119.367C150.474 119.537 150.538 119.702 150.654 119.827C150.769 119.953 150.927 120.031 151.097 120.045Z" fill="#FAFAFA"/>
<path d="M150.995 122.567H156.137C156.318 122.567 156.491 122.496 156.618 122.368C156.746 122.24 156.818 122.067 156.818 121.887C156.818 121.707 156.746 121.533 156.618 121.406C156.491 121.278 156.318 121.207 156.137 121.207H150.995C150.815 121.207 150.642 121.278 150.514 121.406C150.387 121.533 150.315 121.707 150.315 121.887C150.315 122.067 150.387 122.24 150.514 122.368C150.642 122.496 150.815 122.567 150.995 122.567Z" fill="#FAFAFA"/>
</g>
<path d="M97.9717 154.863H105.578C105.758 154.863 105.931 154.791 106.059 154.663C106.186 154.536 106.258 154.363 106.258 154.182C106.258 154.002 106.186 153.829 106.059 153.701C105.931 153.574 105.758 153.502 105.578 153.502H97.9717C97.7912 153.502 97.6181 153.574 97.4905 153.701C97.3629 153.829 97.2913 154.002 97.2913 154.182C97.2913 154.363 97.3629 154.536 97.4905 154.663C97.6181 154.791 97.7912 154.863 97.9717 154.863Z" fill="#407BFF"/>
<path d="M97.6996 157.784H107.566C107.746 157.784 107.919 157.712 108.047 157.584C108.174 157.457 108.246 157.284 108.246 157.103C108.246 156.923 108.174 156.75 108.047 156.622C107.919 156.495 107.746 156.423 107.566 156.423H97.6996C97.5191 156.423 97.3461 156.495 97.2185 156.622C97.0909 156.75 97.0192 156.923 97.0192 157.103C97.0192 157.284 97.0909 157.457 97.2185 157.584C97.3461 157.712 97.5191 157.784 97.6996 157.784Z" fill="#407BFF"/>
<path d="M97.6996 160.792H102.633C102.813 160.792 102.986 160.72 103.114 160.593C103.241 160.465 103.313 160.292 103.313 160.112C103.313 159.931 103.241 159.758 103.114 159.63C102.986 159.503 102.813 159.431 102.633 159.431H97.6996C97.5191 159.431 97.3461 159.503 97.2185 159.63C97.0909 159.758 97.0192 159.931 97.0192 160.112C97.0192 160.292 97.0909 160.465 97.2185 160.593C97.3461 160.72 97.5191 160.792 97.6996 160.792Z" fill="#407BFF"/>
<g opacity="0.1">
<path d="M97.9718 154.863H105.578C105.758 154.863 105.931 154.791 106.059 154.663C106.187 154.536 106.258 154.363 106.258 154.182C106.258 154.002 106.187 153.829 106.059 153.701C105.931 153.574 105.758 153.502 105.578 153.502H97.9718C97.7913 153.502 97.6183 153.574 97.4907 153.701C97.3631 153.829 97.2914 154.002 97.2914 154.182C97.2914 154.363 97.3631 154.536 97.4907 154.663C97.6183 154.791 97.7913 154.863 97.9718 154.863Z" fill="#FAFAFA"/>
<path d="M97.6997 157.784H107.566C107.746 157.784 107.919 157.712 108.047 157.584C108.174 157.457 108.246 157.284 108.246 157.103C108.246 156.923 108.174 156.75 108.047 156.622C107.919 156.495 107.746 156.423 107.566 156.423H97.6997C97.5192 156.423 97.3462 156.495 97.2186 156.622C97.091 156.75 97.0193 156.923 97.0193 157.103C97.0193 157.284 97.091 157.457 97.2186 157.584C97.3462 157.712 97.5192 157.784 97.6997 157.784Z" fill="#FAFAFA"/>
<path d="M97.6997 160.792H102.633C102.813 160.792 102.986 160.72 103.114 160.593C103.241 160.465 103.313 160.292 103.313 160.112C103.313 159.931 103.241 159.758 103.114 159.63C102.986 159.503 102.813 159.431 102.633 159.431H97.6997C97.5192 159.431 97.3462 159.503 97.2186 159.63C97.091 159.758 97.0193 159.931 97.0193 160.112C97.0193 160.292 97.091 160.465 97.2186 160.593C97.3462 160.72 97.5192 160.792 97.6997 160.792Z" fill="#FAFAFA"/>
</g>
<path d="M44.3309 78.5547L46.6297 78.4526L45.5897 82.8267C44.7693 82.265 44.0216 81.6039 43.3638 80.8584C43.174 80.6353 43.0799 80.3464 43.1017 80.0544C43.1236 79.7623 43.2596 79.4907 43.4804 79.2983L44.3309 78.5547Z" fill="#E4897B"/>
<path d="M49.298 80.8098L48.2676 84.3674L45.5897 82.817L46.6298 78.4526L49.298 80.8098Z" fill="#E4897B"/>
<path d="M48.8445 59.6895L44.1406 60.125L54.9292 176.643L59.6331 176.208L48.8445 59.6895Z" fill="#407BFF"/>
<path opacity="0.3" d="M48.8445 59.6895L44.1406 60.125L54.9292 176.643L59.6331 176.208L48.8445 59.6895Z" fill="black"/>
<path d="M58.2546 58.8159L53.5507 59.2515L64.3392 175.77L69.0431 175.334L58.2546 58.8159Z" fill="#407BFF"/>
<path opacity="0.3" d="M58.2546 58.8159L53.5507 59.2515L64.3392 175.77L69.0431 175.334L58.2546 58.8159Z" fill="black"/>
<path d="M53.552 59.2529L48.8481 59.6885L59.6367 176.207L64.3406 175.771L53.552 59.2529Z" fill="#407BFF"/>
<path opacity="0.1" d="M53.552 59.2529L48.8481 59.6885L59.6367 176.207L64.3406 175.771L53.552 59.2529Z" fill="black"/>
<path d="M52.559 51.105L48.3259 51.4986L44.1414 60.1253L58.2551 58.8179L52.559 51.105Z" fill="#407BFF"/>
<g opacity="0.8">
<path d="M52.559 51.105L48.3259 51.4986L44.1414 60.1253L58.2551 58.8179L52.559 51.105Z" fill="#FAFAFA"/>
</g>
<path d="M50.1193 47.7998L48.3259 51.4983L52.5591 51.1047L50.1193 47.7998Z" fill="#263238"/>
<path d="M85.6855 54.3853C86.1716 54.8713 86.5749 55.333 86.9929 55.8433C87.4109 56.3536 87.8094 56.8153 88.2079 57.3013C89.0099 58.2733 89.7583 59.2988 90.4873 60.3437C91.9902 62.4683 93.258 64.7497 94.2685 67.1479C94.39 67.4589 94.5018 67.7845 94.6184 68.1199L94.7934 68.6059C94.8897 68.8968 94.958 69.1962 94.9975 69.5001C95.103 70.4674 94.9746 71.4457 94.6233 72.353C94.0987 73.6923 93.3637 74.9392 92.4459 76.0467C90.8233 78.0327 88.955 79.8046 86.886 81.3199L85.0537 79.3759C86.4958 77.5732 87.8142 75.675 89.0001 73.6944C89.5196 72.8483 89.9188 71.9339 90.186 70.9776C90.2599 70.7429 90.2683 70.4926 90.2103 70.2535L90.045 69.8938C89.9333 69.6557 89.8361 69.4078 89.7146 69.1745C88.6858 67.1782 87.4823 65.277 86.1181 63.4931C85.4377 62.5648 84.7184 61.6608 83.9894 60.7568C83.6249 60.3097 83.2555 59.8626 82.8764 59.4252L81.7683 58.147L85.6855 54.3853Z" fill="#E4897B"/>
<path d="M82.1133 80.8582L84.1837 84.9553L86.2103 83.2105L84.5482 80.2993L82.1133 80.8582Z" fill="#E4897B"/>
<path d="M66.5172 56.7862C65.2569 59.1871 63.9479 61.5604 62.5903 63.9062C61.9245 65.0872 61.2246 66.2488 60.5442 67.4201L59.4993 69.1697L59.2368 69.6071C59.1056 69.8161 58.9598 70.064 58.8286 70.2292C58.6974 70.3944 58.5661 70.5937 58.4398 70.7444C58.3134 70.895 58.1773 71.0651 58.051 71.2061C57.0692 72.2756 56.024 73.285 54.9211 74.2291C53.8567 75.1379 52.7923 76.0224 51.694 76.8632C49.5215 78.5594 47.2907 80.1389 44.9773 81.6456L43.3103 79.546L49.0695 73.8743C50.0124 72.9023 50.965 71.9886 51.8641 71.0263C52.7475 70.1207 53.5799 69.1666 54.3573 68.1685C54.4513 68.0519 54.5339 67.9401 54.6052 67.8332C54.6878 67.7165 54.7461 67.6193 54.8044 67.5221C54.8547 67.444 54.9001 67.3628 54.9405 67.2791L55.1641 66.8271L56.0632 64.9949C56.6804 63.7847 57.2831 62.5648 57.91 61.3644C59.151 58.9441 60.447 56.5513 61.7981 54.186L66.5172 56.7862Z" fill="#E4897B"/>
<path d="M80.1595 40.3687C80.0963 40.6506 80.1984 40.9179 80.3782 40.9665C80.5581 41.0151 80.7573 40.8207 80.8205 40.5388C80.8837 40.257 80.7768 39.9896 80.5969 39.941C80.4171 39.8924 80.2033 40.0869 80.1595 40.3687Z" fill="#263238"/>
<path d="M80.1692 40.9131C80.3215 41.861 80.5993 42.7845 80.9955 43.659C80.7718 43.7476 80.5314 43.7861 80.2913 43.7718C80.0512 43.7575 79.8171 43.6908 79.6055 43.5764L80.1692 40.9131Z" fill="#DE5753"/>
<path d="M80.9031 38.6583C80.8685 38.6584 80.8347 38.6483 80.8059 38.6292C80.6264 38.5195 80.4228 38.4551 80.2129 38.4415C80.0029 38.428 79.7928 38.4657 79.6006 38.5514C79.5586 38.5678 79.512 38.5673 79.4703 38.5501C79.4287 38.5329 79.3953 38.5003 79.377 38.4591C79.3607 38.4171 79.3612 38.3704 79.3784 38.3288C79.3956 38.2871 79.4282 38.2537 79.4694 38.2355C79.7151 38.13 79.9826 38.0856 80.2492 38.1059C80.5158 38.1262 80.7735 38.2107 81.0003 38.3522C81.0188 38.3644 81.0346 38.3802 81.0469 38.3986C81.0591 38.4171 81.0675 38.4378 81.0716 38.4595C81.0757 38.4813 81.0753 38.5037 81.0706 38.5253C81.0659 38.5469 81.0568 38.5674 81.0441 38.5855C81.0283 38.6081 81.0072 38.6266 80.9826 38.6393C80.9581 38.652 80.9308 38.6586 80.9031 38.6583Z" fill="#263238"/>
<path d="M70.3276 41.4429C70.94 44.0576 71.635 48.8399 69.8756 50.5847C69.8756 50.5847 70.6921 53.2335 75.5473 53.2335C80.8934 53.2335 77.9774 50.5847 77.9774 50.5847C75.037 49.8897 75.0273 47.727 75.455 45.7003L70.3276 41.4429Z" fill="#E4897B"/>
<path d="M69.2146 51.4939C68.7966 50.658 68.3397 49.6957 69.2146 49.3944C70.1574 49.0639 75.3917 48.7286 77.224 49.3458C77.7122 49.4764 78.1303 49.792 78.3898 50.2256C78.6493 50.6593 78.7297 51.177 78.614 51.6689L69.2146 51.4939Z" fill="#407BFF"/>
<path opacity="0.6" d="M69.2146 51.4939C68.7966 50.658 68.3397 49.6957 69.2146 49.3944C70.1574 49.0639 75.3917 48.7286 77.224 49.3458C77.7122 49.4764 78.1303 49.792 78.3898 50.2256C78.6493 50.6593 78.7297 51.177 78.614 51.6689L69.2146 51.4939Z" fill="#FAFAFA"/>
<path d="M62.2209 173.429C61.9071 173.427 61.5944 173.393 61.2877 173.327C61.272 173.324 61.2575 173.316 61.2462 173.305C61.2349 173.294 61.2273 173.279 61.2246 173.263C61.2213 173.247 61.2228 173.23 61.2289 173.215C61.2349 173.199 61.2452 173.186 61.2586 173.176C61.2975 173.147 62.2306 172.476 62.7749 172.593C62.8337 172.603 62.8895 172.626 62.9383 172.661C62.987 172.695 63.0275 172.74 63.0568 172.792C63.1006 172.85 63.1243 172.921 63.1243 172.994C63.1243 173.066 63.1006 173.137 63.0568 173.195C62.9402 173.385 62.5854 173.429 62.2209 173.429ZM61.5259 173.205C62.0605 173.293 62.7895 173.293 62.9353 173.093C62.9353 173.093 62.9936 173.016 62.911 172.875C62.8932 172.844 62.8687 172.817 62.8392 172.797C62.8098 172.777 62.7762 172.763 62.7409 172.758C62.2996 172.786 61.8767 172.945 61.5259 173.215V173.205Z" fill="#FAFAFA"/>
<path d="M61.3072 173.341H61.2634C61.2508 173.334 61.2404 173.323 61.2335 173.31C61.2266 173.297 61.2235 173.283 61.2246 173.268C61.2246 173.224 61.2683 172.194 61.6717 171.854C61.7201 171.81 61.7772 171.778 61.8393 171.759C61.9014 171.739 61.9669 171.734 62.0313 171.742C62.0969 171.742 62.1604 171.765 62.2109 171.806C62.2615 171.848 62.2959 171.906 62.3084 171.97C62.3861 172.369 61.7057 173.147 61.3363 173.346L61.3072 173.341ZM61.973 171.883C61.9031 171.884 61.8359 171.91 61.7835 171.956C61.5451 172.282 61.4127 172.674 61.4044 173.079C61.7543 172.802 62.1869 172.213 62.1431 171.98C62.1431 171.956 62.1431 171.898 62.0119 171.883H61.973Z" fill="#FAFAFA"/>
<path d="M83.6636 173.429C83.2952 173.429 82.9275 173.395 82.5653 173.327C82.5482 173.324 82.5325 173.316 82.5203 173.304C82.5081 173.291 82.5 173.276 82.4972 173.259C82.4945 173.242 82.4967 173.225 82.5036 173.209C82.5105 173.194 82.5218 173.18 82.5361 173.171C82.7159 173.069 84.3003 172.16 84.6843 172.787C84.7227 172.842 84.7434 172.907 84.7434 172.974C84.7434 173.041 84.7227 173.107 84.6843 173.161C84.5773 173.375 84.1205 173.429 83.6636 173.429ZM82.8326 173.2C83.5033 173.298 84.4072 173.283 84.5628 173.064C84.5628 173.064 84.6114 172.996 84.5385 172.875C84.3246 172.53 83.3623 172.943 82.8326 173.21V173.2Z" fill="#FAFAFA"/>
<path d="M82.5799 173.341C82.564 173.345 82.5472 173.345 82.5313 173.341C82.5191 173.332 82.5095 173.321 82.5035 173.307C82.4975 173.293 82.4954 173.278 82.4972 173.263C82.4972 173.225 82.5556 172.262 82.9833 171.888C83.0481 171.829 83.1254 171.785 83.2096 171.759C83.2937 171.734 83.3825 171.728 83.4693 171.742C83.7074 171.766 83.7755 171.888 83.79 171.985C83.8581 172.398 83.0464 173.152 82.6188 173.346L82.5799 173.341ZM83.3964 171.883C83.2885 171.882 83.1841 171.922 83.1048 171.995C82.8493 172.308 82.7011 172.695 82.6819 173.098C83.1096 172.836 83.6539 172.238 83.6199 171.99C83.6199 171.966 83.6199 171.903 83.445 171.883H83.3964Z" fill="#FAFAFA"/>
<path d="M78.6528 173.254H82.225L82.259 164.987H78.6917L78.6528 173.254Z" fill="#E4897B"/>
<path d="M57.215 173.254H60.7871L62.2646 164.987H58.6924L57.215 173.254Z" fill="#E4897B"/>
<path d="M61.0254 172.84H57.0158C56.9449 172.839 56.876 172.864 56.8216 172.909C56.7673 172.955 56.731 173.018 56.7193 173.088L56.1361 176.262C56.1242 176.341 56.1294 176.421 56.1516 176.497C56.1738 176.574 56.2123 176.645 56.2646 176.705C56.3168 176.765 56.3815 176.813 56.4542 176.846C56.5268 176.878 56.6057 176.895 56.6853 176.894C58.085 176.869 58.7606 176.787 60.5248 176.787C61.6086 176.787 63.8491 176.903 65.3509 176.903C66.8526 176.903 66.9839 175.445 66.3666 175.285C63.5915 174.682 62.5223 173.851 61.6135 173.064C61.4512 172.92 61.2421 172.841 61.0254 172.84Z" fill="#263238"/>
<path d="M82.1861 172.84H78.298C78.2272 172.839 78.1583 172.864 78.1039 172.909C78.0495 172.955 78.0132 173.018 78.0016 173.088L77.4184 176.262C77.4048 176.34 77.4086 176.42 77.4296 176.497C77.4505 176.573 77.4881 176.644 77.5396 176.705C77.5911 176.765 77.6553 176.813 77.7276 176.846C77.7999 176.878 77.8785 176.895 77.9578 176.894C79.3624 176.869 81.3891 176.787 83.1581 176.787C85.2285 176.787 87.0171 176.903 89.4422 176.903C90.9003 176.903 91.2551 175.445 90.6378 175.285C87.819 174.673 85.5347 174.609 83.0658 173.122C82.8046 172.948 82.4999 172.85 82.1861 172.84Z" fill="#263238"/>
<path d="M63.0665 51.3914C59.747 52.1593 56.2623 61.2817 56.2623 61.2817L63.1588 65.8891C64.7421 63.4883 66.1301 60.9643 67.3093 58.3414C69.1319 54.1665 66.4539 50.6089 63.0665 51.3914Z" fill="#407BFF"/>
<path opacity="0.7" d="M63.0665 51.3914C59.747 52.1593 56.2623 61.2817 56.2623 61.2817L63.1588 65.8891C64.7421 63.4883 66.1301 60.9643 67.3093 58.3414C69.1319 54.1665 66.4539 50.6089 63.0665 51.3914Z" fill="black"/>
<path d="M65.6861 57.209L62.8333 65.6704L63.1589 65.8891C63.1589 65.8891 64.4614 63.9451 65.8465 61.3546L65.6861 57.209Z" fill="#407BFF"/>
<path opacity="0.8" d="M65.6861 57.209L62.8333 65.6704L63.1589 65.8891C63.1589 65.8891 64.4614 63.9451 65.8465 61.3546L65.6861 57.209Z" fill="black"/>
<path d="M85.3402 67.3426C85.3111 71.3279 85.0729 76.2851 84.48 82.438H65.3798C65.1319 79.522 66.4247 65.2041 63.0664 51.3918C65.1672 50.9845 67.2923 50.715 69.4283 50.585C72.1315 50.4294 74.8414 50.4294 77.5446 50.585C79.4089 50.7662 81.2563 51.0912 83.0705 51.557C83.0705 51.557 84.7035 53.3261 85.1993 61.6222C85.2965 63.2795 85.3499 65.1653 85.3402 67.3426Z" fill="#407BFF"/>
<path opacity="0.7" d="M85.3402 67.3426C85.3111 71.3279 85.0729 76.2851 84.48 82.438H65.3798C65.1319 79.522 66.4247 65.2041 63.0664 51.3918C65.1672 50.9845 67.2923 50.715 69.4283 50.585C72.1315 50.4294 74.8414 50.4294 77.5446 50.585C79.4089 50.7662 81.2563 51.0912 83.0705 51.557C83.0705 51.557 84.7035 53.3261 85.1993 61.6222C85.2965 63.2795 85.3499 65.1653 85.3402 67.3426Z" fill="black"/>
<path d="M85.3403 67.3424C84.1836 65.2331 82.0841 61 82.3805 58.5942L85.1994 61.6464C85.2966 63.2794 85.3501 65.1651 85.3403 67.3424Z" fill="#407BFF"/>
<path opacity="0.8" d="M85.3403 67.3424C84.1836 65.2331 82.0841 61 82.3805 58.5942L85.1994 61.6464C85.2966 63.2794 85.3501 65.1651 85.3403 67.3424Z" fill="black"/>
<path d="M79.3284 54.8034C79.0271 58.2054 86.7401 66.3898 86.7401 66.3898L92.9221 61.3548C91.303 58.6224 89.363 56.0934 87.1435 53.8216C83.5275 50.3272 79.6686 50.9931 79.3284 54.8034Z" fill="#407BFF"/>
<path opacity="0.7" d="M79.3284 54.8034C79.0271 58.2054 86.7401 66.3898 86.7401 66.3898L92.9221 61.3548C91.303 58.6224 89.363 56.0934 87.1435 53.8216C83.5275 50.3272 79.6686 50.9931 79.3284 54.8034Z" fill="black"/>
<path d="M82.259 164.991L82.2395 169.249H78.6722L78.6868 164.991H82.259Z" fill="#CE6F64"/>
<path d="M58.6925 164.991H62.2646L61.5016 169.249H57.9294L58.6925 164.991Z" fill="#CE6F64"/>
<path d="M70.9691 37.4188C70.4491 40.9375 69.9679 42.9593 71.319 45.1949C71.7485 45.919 72.368 46.5116 73.1102 46.9087C73.8525 47.3058 74.6893 47.4921 75.5299 47.4476C76.3706 47.403 77.183 47.1292 77.8791 46.6559C78.5752 46.1826 79.1286 45.5278 79.4791 44.7624C80.874 41.8463 81.4961 36.578 78.4293 34.3521C77.7822 33.8524 77.015 33.532 76.2047 33.4229C75.3944 33.3139 74.5697 33.4202 73.8136 33.731C73.0574 34.0418 72.3964 34.5463 71.8971 35.1937C71.3978 35.841 71.0777 36.6085 70.9691 37.4188Z" fill="#E4897B"/>
<path d="M81.5397 35.7519C80.4878 36.3263 79.3306 36.6818 78.1376 36.7968C77.2482 40.8647 74.8813 45.5449 71.0516 44.1987C69.5936 43.7127 68.1355 40.1794 67.9849 37.0446C67.7322 37.3508 67.5621 37.7493 67.4308 37.9146C67.2123 36.5215 67.37 35.0952 67.8877 33.7835C68.9472 30.78 69.6519 32.7726 70.8037 30.9501C71.5473 29.7448 72.8693 29.1227 75.1778 29.0449C74.5314 29.3803 74.4099 29.9197 75.3674 29.842C76.3248 29.7642 80.4121 29.5407 82.7936 31.1493C81.1849 31.5139 82.1666 34.0654 84.3148 32.7046C83.5323 33.9731 82.5603 35.1784 81.5397 35.7519Z" fill="#263238"/>
<path d="M75.3869 39.596C75.4005 40.4908 75.7002 41.3577 76.2422 42.0698C76.9664 43.0029 77.7975 42.5558 77.9967 41.506C78.1717 40.5729 77.9967 38.9593 77.0928 38.3955C76.1888 37.8318 75.382 38.5268 75.3869 39.596Z" fill="#E4897B"/>
<path d="M71.0321 31.3291C70.5471 31.2984 70.077 31.1494 69.6627 30.8953C69.2485 30.6411 68.9027 30.2895 68.6555 29.8711C68.6555 29.8711 68.5924 32.7191 71.0321 31.3291Z" fill="#1E2A4C"/>
<path d="M77.7002 82.4379C77.7002 82.4379 74.7063 109.722 72.8741 119.943C70.8717 131.121 63.1539 168.428 63.1539 168.428H56.5928C56.5928 168.428 61.2487 132.04 62.2208 120.94C63.2657 108.911 65.3993 82.4185 65.3993 82.4185L77.7002 82.4379Z" fill="#407BFF"/>
<path opacity="0.6" d="M77.7002 82.4379C77.7002 82.4379 74.7063 109.722 72.8741 119.943C70.8717 131.121 63.1539 168.428 63.1539 168.428H56.5928C56.5928 168.428 61.2487 132.04 62.2208 120.94C63.2657 108.911 65.3993 82.4185 65.3993 82.4185L77.7002 82.4379Z" fill="#FAFAFA"/>
<path d="M64.0823 166.017C64.1115 166.017 63.504 168.53 63.504 168.53H56.1506L56.1992 166.289L64.0823 166.017Z" fill="#407BFF"/>
<path opacity="0.1" d="M64.0823 166.017C64.1115 166.017 63.504 168.53 63.504 168.53H56.1506L56.1992 166.289L64.0823 166.017Z" fill="#FAFAFA"/>
<path d="M75.5182 92.1579C70.8671 93.0765 72.0384 110.548 72.9473 119.535C74.0554 113.183 75.562 100.96 76.5777 92.2843C76.2489 92.124 75.8756 92.0794 75.5182 92.1579Z" fill="#407BFF"/>
<path opacity="0.4" d="M75.5182 92.1579C70.8671 93.0765 72.0384 110.548 72.9473 119.535C74.0554 113.183 75.562 100.96 76.5777 92.2843C76.2489 92.124 75.8756 92.0794 75.5182 92.1579Z" fill="#FAFAFA"/>
<path d="M84.4752 82.438C84.4752 82.438 86.0013 109.13 86.0305 120.021C86.0645 131.345 83.5421 168.428 83.5421 168.428H77.4913C77.4913 168.428 75.8632 132.006 75.1633 120.886C74.4051 108.76 71.9216 82.438 71.9216 82.438H84.4752Z" fill="#407BFF"/>
<path opacity="0.6" d="M84.4752 82.438C84.4752 82.438 86.0013 109.13 86.0305 120.021C86.0645 131.345 83.5421 168.428 83.5421 168.428H77.4913C77.4913 168.428 75.8632 132.006 75.1633 120.886C74.4051 108.76 71.9216 82.438 71.9216 82.438H84.4752Z" fill="#FAFAFA"/>
<path d="M85.9381 79.0068L84.242 79.1429C84.1038 79.1545 83.9699 79.1968 83.8501 79.2666C83.7303 79.3364 83.6276 79.432 83.5494 79.5465C83.4712 79.661 83.4195 79.7915 83.3981 79.9285C83.3766 80.0655 83.386 80.2056 83.4255 80.3385L84.1253 82.6956C84.1844 82.8872 84.2889 83.0616 84.4299 83.2041C84.5708 83.3465 84.7441 83.4528 84.935 83.5139C85.1259 83.575 85.3288 83.5891 85.5263 83.5549C85.7238 83.5207 85.9101 83.4394 86.0694 83.3177C86.9455 82.5023 87.5739 81.4562 87.8822 80.2996L85.9381 79.0068Z" fill="#E4897B"/>
<path d="M82.1084 164.083C82.0921 164.08 82.0772 164.072 82.0664 164.06C82.0557 164.047 82.0499 164.031 82.0501 164.015C82.7207 153.755 84.276 128.925 84.2468 120.021C84.2468 110.908 83.1387 90.5252 82.7888 84.4938C82.7881 84.4858 82.7891 84.4777 82.7917 84.47C82.7944 84.4624 82.7986 84.4554 82.8041 84.4494C82.8095 84.4435 82.8162 84.4387 82.8236 84.4355C82.831 84.4323 82.839 84.4306 82.8471 84.4307C82.8631 84.4306 82.8784 84.4366 82.8901 84.4474C82.9019 84.4582 82.9091 84.4731 82.9103 84.489C83.2408 90.5204 84.3246 110.904 84.3683 120.021C84.3975 128.93 82.8422 153.76 82.1716 164.024C82.1716 164.032 82.1699 164.041 82.1667 164.048C82.1635 164.055 82.1587 164.062 82.1528 164.067C82.1469 164.073 82.1398 164.077 82.1322 164.08C82.1245 164.082 82.1164 164.083 82.1084 164.083Z" fill="#407BFF"/>
<path opacity="0.3" d="M82.1084 164.083C82.0921 164.08 82.0772 164.072 82.0664 164.06C82.0557 164.047 82.0499 164.031 82.0501 164.015C82.7207 153.755 84.276 128.925 84.2468 120.021C84.2468 110.908 83.1387 90.5252 82.7888 84.4938C82.7881 84.4858 82.7891 84.4777 82.7917 84.47C82.7944 84.4624 82.7986 84.4554 82.8041 84.4494C82.8095 84.4435 82.8162 84.4387 82.8236 84.4355C82.831 84.4323 82.839 84.4306 82.8471 84.4307C82.8631 84.4306 82.8784 84.4366 82.8901 84.4474C82.9019 84.4582 82.9091 84.4731 82.9103 84.489C83.2408 90.5204 84.3246 110.904 84.3683 120.021C84.3975 128.93 82.8422 153.76 82.1716 164.024C82.1716 164.032 82.1699 164.041 82.1667 164.048C82.1635 164.055 82.1587 164.062 82.1528 164.067C82.1469 164.073 82.1398 164.077 82.1322 164.08C82.1245 164.082 82.1164 164.083 82.1084 164.083Z" fill="#FAFAFA"/>
<path d="M84.6114 166.017C84.6406 166.017 84.3684 168.53 84.3684 168.53H77.0103L76.7235 166.289L84.6114 166.017Z" fill="#407BFF"/>
<path opacity="0.1" d="M84.6114 166.017C84.6406 166.017 84.3684 168.53 84.3684 168.53H77.0103L76.7235 166.289L84.6114 166.017Z" fill="#FAFAFA"/>
</svg>
