<svg width="272" height="175" viewBox="0 0 272 175" fill="none" xmlns="http://www.w3.org/2000/svg">
<g clip-path="url(#clip0_1034_2080)">
<path d="M254.075 173.683C250.551 171.33 248.777 166.854 248.707 162.623C248.683 161.204 249.042 159.56 250.316 158.929C250.68 158.748 251.087 158.671 251.493 158.707C251.898 158.743 252.286 158.889 252.613 159.131C252.94 159.372 253.194 159.699 253.347 160.076C253.5 160.452 253.546 160.864 253.48 161.264C253.952 159.884 254.564 158.556 255.308 157.3C255.937 156.237 256.821 155.13 258.055 155.029C259.485 154.912 260.68 156.299 260.883 157.717C261.086 159.135 260.569 160.547 260.06 161.887C260.204 161.28 260.498 160.719 260.915 160.254C261.332 159.79 261.859 159.438 262.448 159.229C263.036 159.021 263.668 158.963 264.285 159.062C264.902 159.16 265.484 159.411 265.979 159.792C267.378 160.87 267.839 162.854 267.487 164.582C267.135 166.311 266.101 167.824 264.958 169.169C263.618 170.746 262.066 172.188 260.208 173.104C258.35 174.02 256.152 174.37 254.176 173.749L254.075 173.683Z" fill="#F2F2F2"/>
<path d="M205.876 117.022C206.361 116.781 206.787 116.437 207.125 116.014C207.462 115.591 207.702 115.1 207.829 114.574C207.955 114.048 207.964 113.501 207.856 112.972C207.748 112.442 207.524 111.942 207.201 111.508L215.836 69.6694L207.778 69.5635L201.782 110.871C201.088 111.461 200.633 112.284 200.506 113.186C200.379 114.087 200.587 115.003 201.092 115.762C201.597 116.52 202.362 117.067 203.244 117.299C204.126 117.532 205.063 117.433 205.876 117.022V117.022Z" fill="#FFB8B8"/>
<path d="M245.122 114.85C245.518 114.481 245.828 114.029 246.03 113.528C246.232 113.026 246.321 112.486 246.292 111.947C246.262 111.407 246.114 110.88 245.859 110.403C245.603 109.927 245.246 109.512 244.812 109.188L241.104 66.6313L233.353 68.8284L239.437 110.123C238.94 110.886 238.741 111.805 238.877 112.705C239.013 113.605 239.476 114.424 240.176 115.007C240.877 115.589 241.767 115.895 242.679 115.866C243.59 115.837 244.46 115.475 245.122 114.85Z" fill="#FFB8B8"/>
<path d="M220.258 169.737L216.029 169.736L214.018 153.458L220.259 153.458L220.258 169.737Z" fill="#FFB8B8"/>
<path d="M213.009 168.531H221.164V173.655H207.874C207.874 172.296 208.415 170.993 209.378 170.032C210.341 169.071 211.647 168.531 213.009 168.531Z" fill="#2F2E41"/>
<path d="M239.228 169.737L234.999 169.736L232.988 153.458L239.229 153.458L239.228 169.737Z" fill="#FFB8B8"/>
<path d="M231.979 168.531H240.134V173.655H226.844C226.844 172.296 227.385 170.993 228.348 170.032C229.311 169.071 230.617 168.531 231.979 168.531Z" fill="#2F2E41"/>
<path d="M221.354 53.4316C226.032 53.4316 229.825 49.6463 229.825 44.9768C229.825 40.3073 226.032 36.522 221.354 36.522C216.675 36.522 212.882 40.3073 212.882 44.9768C212.882 49.6463 216.675 53.4316 221.354 53.4316Z" fill="#FFB8B8"/>
<path d="M233.263 159.465C232.918 159.464 232.584 159.343 232.319 159.124C232.053 158.905 231.871 158.602 231.803 158.264L226.077 128.692C226.024 128.421 225.876 128.178 225.66 128.007C225.443 127.835 225.172 127.747 224.896 127.758C224.62 127.77 224.357 127.879 224.155 128.067C223.952 128.255 223.825 128.509 223.794 128.783L220.587 157.588C220.549 157.94 220.386 158.266 220.128 158.508C219.869 158.75 219.532 158.891 219.178 158.905L214.369 159.123C214.173 159.134 213.977 159.105 213.793 159.038C213.609 158.971 213.441 158.868 213.297 158.735C213.153 158.604 213.036 158.445 212.953 158.268C212.871 158.091 212.825 157.899 212.817 157.704L210.973 113.208C210.963 112.983 211.004 112.76 211.095 112.553C211.185 112.347 211.321 112.165 211.493 112.019L212.559 111.111C212.828 110.882 213.17 110.756 213.523 110.756H238.453C238.847 110.757 239.225 110.913 239.503 111.191C239.781 111.469 239.938 111.846 239.939 112.239V157.757C239.939 158.14 239.792 158.507 239.527 158.783C239.262 159.059 238.9 159.223 238.518 159.239L233.326 159.464C233.305 159.465 233.284 159.465 233.263 159.465Z" fill="#2F2E41"/>
<path d="M220.495 117.23C216.465 117.231 212.912 116.159 211.118 113.033C210.968 112.775 210.898 112.479 210.916 112.182L213.17 77.8004C213.188 77.5224 213.105 77.2472 212.936 77.0257L206.612 68.7508C206.493 68.5957 206.407 68.4188 206.357 68.2302C206.307 68.0416 206.295 67.8451 206.321 67.6518C206.348 67.4585 206.412 67.2724 206.511 67.104C206.609 66.9356 206.74 66.7883 206.896 66.6706L216.382 59.4982C216.581 59.3471 216.726 59.1359 216.795 58.8959L217.071 57.9308C217.157 57.6301 217.336 57.3643 217.582 57.1713C217.828 56.9783 218.129 56.8681 218.442 56.8566L225.403 56.5892C225.635 56.5814 225.866 56.6276 226.077 56.724C226.288 56.8204 226.474 56.9645 226.62 57.1448L227.361 58.0688C227.455 58.1868 227.572 58.285 227.704 58.358L239.345 64.7782C239.575 64.9053 239.767 65.0908 239.901 65.3159C240.036 65.5411 240.109 65.7978 240.112 66.0599L240.112 66.0805L240.107 66.1002C237.394 77.3921 237.546 91.6648 240.587 111.018C240.596 111.313 240.515 111.604 240.357 111.853C240.198 112.102 239.968 112.299 239.697 112.417C237.178 113.506 228.008 117.23 220.495 117.23Z" fill="#09017E"/>
<path d="M213.407 81.7659H205.523C205.32 81.7662 205.12 81.7253 204.934 81.6455C204.749 81.5658 204.581 81.449 204.442 81.3023C204.303 81.1555 204.196 80.982 204.127 80.7924C204.057 80.6028 204.028 80.401 204.039 80.1995C204.157 78.1949 204.388 74.3825 204.62 71.3761C204.953 67.0496 209.201 64.9202 209.244 64.8989L209.327 64.8584L212.194 66.6751L214.863 79.9929C214.906 80.208 214.901 80.4299 214.848 80.6427C214.794 80.8554 214.694 81.0538 214.555 81.2234C214.416 81.3929 214.241 81.5296 214.042 81.6234C213.843 81.7172 213.626 81.7659 213.407 81.7659H213.407Z" fill="#09017E"/>
<path d="M235.011 81.0314C234.802 81.0301 234.597 80.9853 234.407 80.8998C234.218 80.8143 234.048 80.6901 233.91 80.5351C233.771 80.3802 233.667 80.198 233.604 80.0003C233.54 79.8026 233.519 79.5938 233.541 79.3874L234.996 66.0275L237.807 63.9727L237.871 63.9797C237.901 63.9833 240.896 64.3565 242.237 67.7036C243.193 70.0872 244.652 74.4925 245.436 76.9063C245.499 77.1003 245.522 77.3052 245.501 77.5082C245.481 77.7111 245.42 77.9077 245.32 78.0856C245.22 78.2636 245.084 78.4191 244.922 78.5423C244.759 78.6656 244.572 78.754 244.374 78.8019L235.369 80.988C235.252 81.0168 235.131 81.0314 235.011 81.0314Z" fill="#09017E"/>
<path d="M221.546 53.4905C223.358 50.6296 221.096 42.7541 216.167 42.5486C215.029 42.5012 214.592 40.8485 214.206 39.7794C214.009 39.1596 213.956 38.503 214.053 37.8599C214.149 37.2167 214.391 36.6041 214.761 36.0688C215.514 35.002 216.55 34.1664 217.753 33.6563C219.107 33.0357 220.578 32.713 222.068 32.71C223.557 32.707 225.03 33.0238 226.386 33.639C227.741 34.2541 228.949 35.1532 229.926 36.2751C230.903 37.3971 231.627 38.7157 232.048 40.1415C232.47 41.5672 232.579 43.0668 232.368 44.5384C232.158 46.01 231.633 47.4192 230.828 48.6703C230.024 49.9215 228.96 50.9853 227.707 51.7896C226.454 52.5939 225.043 53.1199 223.569 53.3318L221.546 53.4905Z" fill="#2F2E41"/>
<path d="M170.387 0.317871H2.41439C1.77427 0.31858 1.16057 0.572685 0.70794 1.02443C0.255308 1.47618 0.000710261 2.08867 0 2.72754V116.326C0.000711172 116.965 0.255308 117.577 0.70794 118.029C1.16057 118.481 1.77427 118.735 2.41439 118.736H170.387C171.027 118.735 171.641 118.481 172.093 118.029C172.546 117.577 172.8 116.965 172.801 116.326V2.72754C172.8 2.08867 172.546 1.47618 172.093 1.02443C171.641 0.572685 171.027 0.31858 170.387 0.317871ZM172.111 116.326C172.111 116.782 171.929 117.22 171.606 117.543C171.283 117.866 170.844 118.047 170.387 118.047H2.41439C1.95706 118.047 1.51851 117.866 1.19514 117.543C0.871757 117.22 0.690007 116.782 0.689825 116.326V2.72754C0.690007 2.2711 0.871757 1.83342 1.19514 1.51067C1.51851 1.18793 1.95706 1.00653 2.41439 1.00635H170.387C170.844 1.00653 171.283 1.18793 171.606 1.51067C171.929 1.83342 172.111 2.2711 172.111 2.72754V116.326Z" fill="#3F3D56"/>
<path d="M172.456 9.97021H0.344971V10.6587H172.456V9.97021Z" fill="#3F3D56"/>
<path d="M6.20839 7.54687C7.35133 7.54687 8.27786 6.62215 8.27786 5.48144C8.27786 4.34074 7.35133 3.41602 6.20839 3.41602C5.06545 3.41602 4.13892 4.34074 4.13892 5.48144C4.13892 6.62215 5.06545 7.54687 6.20839 7.54687Z" fill="#3F3D56"/>
<path d="M12.1581 7.54687C13.301 7.54687 14.2276 6.62215 14.2276 5.48144C14.2276 4.34074 13.301 3.41602 12.1581 3.41602C11.0152 3.41602 10.0886 4.34074 10.0886 5.48144C10.0886 6.62215 11.0152 7.54687 12.1581 7.54687Z" fill="#3F3D56"/>
<path d="M18.1079 7.54687C19.2509 7.54687 20.1774 6.62215 20.1774 5.48144C20.1774 4.34074 19.2509 3.41602 18.1079 3.41602C16.965 3.41602 16.0385 4.34074 16.0385 5.48144C16.0385 6.62215 16.965 7.54687 18.1079 7.54687Z" fill="#3F3D56"/>
<path d="M139.285 33.5244H32.362C30.9441 33.5244 29.5843 32.9623 28.5817 31.9616C27.5791 30.961 27.0159 29.6038 27.0159 28.1887C27.0159 26.7736 27.5791 25.4165 28.5817 24.4158C29.5843 23.4152 30.9441 22.853 32.362 22.853H139.285C140.703 22.853 142.063 23.4152 143.065 24.4158C144.068 25.4165 144.631 26.7736 144.631 28.1887C144.631 29.6038 144.068 30.961 143.065 31.9616C142.063 32.9623 140.703 33.5244 139.285 33.5244ZM32.362 23.5415C31.1271 23.5415 29.9427 24.0311 29.0695 24.9026C28.1963 25.7742 27.7057 26.9562 27.7057 28.1887C27.7057 29.4212 28.1963 30.6033 29.0695 31.4748C29.9427 32.3463 31.1271 32.8359 32.362 32.8359H139.285C140.52 32.8359 141.704 32.3463 142.577 31.4748C143.451 30.6033 143.941 29.4212 143.941 28.1887C143.941 26.9562 143.451 25.7742 142.577 24.9026C141.704 24.0311 140.52 23.5415 139.285 23.5415H32.362Z" fill="#3F3D56"/>
<path d="M59.9549 60.7192H39.2602C37.8423 60.7192 36.4825 60.1571 35.4799 59.1564C34.4773 58.1558 33.9141 56.7986 33.9141 55.3835C33.9141 53.9684 34.4773 52.6113 35.4799 51.6106C36.4825 50.61 37.8423 50.0479 39.2602 50.0479H59.9549C61.3728 50.0479 62.7326 50.61 63.7352 51.6106C64.7378 52.6113 65.3011 53.9684 65.3011 55.3835C65.3011 56.7986 64.7378 58.1558 63.7352 59.1564C62.7326 60.1571 61.3728 60.7192 59.9549 60.7192ZM39.2602 50.7363C38.0253 50.7363 36.8409 51.2259 35.9677 52.0975C35.0945 52.969 34.6039 54.151 34.6039 55.3835C34.6039 56.6161 35.0945 57.7981 35.9677 58.6696C36.8409 59.5411 38.0253 60.0307 39.2602 60.0307H59.9549C61.1899 60.0307 62.3742 59.5411 63.2474 58.6696C64.1207 57.7981 64.6113 56.6161 64.6113 55.3835C64.6113 54.151 64.1207 52.969 63.2474 52.0975C62.3742 51.2259 61.1899 50.7363 59.9549 50.7363H39.2602Z" fill="#3F3D56"/>
<path d="M59.9549 78.6196H39.2602C37.8423 78.6196 36.4825 78.0575 35.4799 77.0568C34.4773 76.0562 33.9141 74.699 33.9141 73.2839C33.9141 71.8688 34.4773 70.5117 35.4799 69.511C36.4825 68.5104 37.8423 67.9482 39.2602 67.9482H59.9549C61.3728 67.9482 62.7326 68.5104 63.7352 69.511C64.7378 70.5117 65.3011 71.8688 65.3011 73.2839C65.3011 74.699 64.7378 76.0562 63.7352 77.0568C62.7326 78.0575 61.3728 78.6196 59.9549 78.6196ZM39.2602 68.6367C38.0253 68.6367 36.8409 69.1263 35.9677 69.9979C35.0945 70.8694 34.6039 72.0514 34.6039 73.2839C34.6039 74.5164 35.0945 75.6985 35.9677 76.57C36.8409 77.4415 38.0253 77.9311 39.2602 77.9311H59.9549C61.1899 77.9311 62.3742 77.4415 63.2474 76.57C64.1207 75.6985 64.6113 74.5164 64.6113 73.2839C64.6113 72.0514 64.1207 70.8694 63.2474 69.9979C62.3742 69.1263 61.1899 68.6367 59.9549 68.6367H39.2602Z" fill="#3F3D56"/>
<path d="M59.9549 96.52H39.2602C37.8423 96.52 36.4825 95.9579 35.4799 94.9572C34.4773 93.9566 33.9141 92.5994 33.9141 91.1843C33.9141 89.7692 34.4773 88.4121 35.4799 87.4114C36.4825 86.4108 37.8423 85.8486 39.2602 85.8486H59.9549C61.3728 85.8486 62.7326 86.4108 63.7352 87.4114C64.7378 88.4121 65.3011 89.7692 65.3011 91.1843C65.3011 92.5994 64.7378 93.9566 63.7352 94.9572C62.7326 95.9579 61.3728 96.52 59.9549 96.52ZM39.2602 86.5371C38.0253 86.5371 36.8409 87.0267 35.9677 87.8982C35.0945 88.7698 34.6039 89.9518 34.6039 91.1843C34.6039 92.4168 35.0945 93.5989 35.9677 94.4704C36.8409 95.3419 38.0253 95.8315 39.2602 95.8315H59.9549C61.1899 95.8315 62.3742 95.3419 63.2474 94.4704C64.1207 93.5989 64.6113 92.4168 64.6113 91.1843C64.6113 89.9518 64.1207 88.7698 63.2474 87.8982C62.3742 87.0267 61.1899 86.5371 59.9549 86.5371H39.2602Z" fill="#3F3D56"/>
<path d="M63.0591 30.5986H34.0865C33.4462 30.5986 32.8321 30.3448 32.3793 29.8929C31.9265 29.441 31.6721 28.828 31.6721 28.189C31.6721 27.5499 31.9265 26.937 32.3793 26.4851C32.8321 26.0332 33.4462 25.7793 34.0865 25.7793H63.0591C63.6995 25.7793 64.3136 26.0332 64.7664 26.4851C65.2191 26.937 65.4735 27.5499 65.4735 28.189C65.4735 28.828 65.2191 29.441 64.7664 29.8929C64.3136 30.3448 63.6995 30.5986 63.0591 30.5986Z" fill="#09017E"/>
<path d="M135.663 29.3935C135.186 29.3935 134.719 29.2522 134.322 28.9874C133.925 28.7227 133.615 28.3463 133.433 27.906C133.25 27.4657 133.202 26.9812 133.295 26.5138C133.388 26.0463 133.618 25.617 133.956 25.28C134.294 24.943 134.724 24.7135 135.192 24.6205C135.661 24.5275 136.146 24.5753 136.587 24.7576C137.028 24.94 137.405 25.2489 137.671 25.6451C137.936 26.0414 138.078 26.5073 138.078 26.9839C138.077 27.6227 137.822 28.2352 137.37 28.687C136.917 29.1387 136.303 29.3928 135.663 29.3935ZM135.663 25.2627C135.322 25.2627 134.989 25.3636 134.705 25.5528C134.422 25.7419 134.201 26.0107 134.07 26.3252C133.939 26.6397 133.905 26.9858 133.972 27.3197C134.038 27.6535 134.203 27.9602 134.444 28.2009C134.685 28.4417 134.992 28.6056 135.327 28.672C135.661 28.7384 136.008 28.7043 136.323 28.5741C136.638 28.4438 136.908 28.2232 137.097 27.9401C137.287 27.6571 137.388 27.3243 137.388 26.9839C137.387 26.5276 137.205 26.0901 136.882 25.7674C136.559 25.4447 136.121 25.2632 135.663 25.2627Z" fill="#3F3D56"/>
<path d="M139.398 31.5735C139.353 31.5735 139.308 31.5647 139.266 31.5474C139.224 31.53 139.186 31.5046 139.154 31.4726L136.731 29.0539C136.699 29.0219 136.673 28.984 136.656 28.9422C136.639 28.9005 136.63 28.8557 136.63 28.8105C136.63 28.7653 136.639 28.7205 136.656 28.6788C136.673 28.637 136.699 28.5991 136.731 28.5671C136.763 28.5352 136.801 28.5098 136.843 28.4925C136.885 28.4752 136.929 28.4663 136.975 28.4663C137.02 28.4663 137.065 28.4752 137.107 28.4925C137.149 28.5098 137.187 28.5352 137.219 28.5671L139.642 30.9859C139.69 31.034 139.723 31.0953 139.736 31.1621C139.75 31.2289 139.743 31.2981 139.717 31.361C139.691 31.4239 139.646 31.4776 139.59 31.5154C139.533 31.5533 139.466 31.5735 139.398 31.5735L139.398 31.5735Z" fill="#3F3D56"/>
<path d="M134.284 58.6538H122.557C121.688 58.6538 120.854 58.3093 120.24 57.696C119.625 57.0827 119.28 56.2509 119.28 55.3835C119.28 54.5162 119.625 53.6844 120.24 53.0711C120.854 52.4578 121.688 52.1133 122.557 52.1133H134.284C135.153 52.1133 135.986 52.4578 136.601 53.0711C137.215 53.6844 137.56 54.5162 137.56 55.3835C137.56 56.2509 137.215 57.0827 136.601 57.696C135.986 58.3093 135.153 58.6538 134.284 58.6538Z" fill="#09017E"/>
<path d="M134.284 76.5542H122.557C121.688 76.5542 120.854 76.2097 120.24 75.5964C119.625 74.9831 119.28 74.1513 119.28 73.2839C119.28 72.4166 119.625 71.5848 120.24 70.9715C120.854 70.3582 121.688 70.0137 122.557 70.0137H134.284C135.153 70.0137 135.986 70.3582 136.601 70.9715C137.215 71.5848 137.56 72.4166 137.56 73.2839C137.56 74.1513 137.215 74.9831 136.601 75.5964C135.986 76.2097 135.153 76.5542 134.284 76.5542Z" fill="#09017E"/>
<path d="M134.284 94.4546H122.557C121.688 94.4546 120.854 94.11 120.24 93.4967C119.625 92.8835 119.28 92.0516 119.28 91.1843C119.28 90.317 119.625 89.4852 120.24 88.8719C120.854 88.2586 121.688 87.9141 122.557 87.9141H134.284C135.153 87.9141 135.986 88.2586 136.601 88.8719C137.215 89.4852 137.56 90.317 137.56 91.1843C137.56 92.0516 137.215 92.8835 136.601 93.4967C135.986 94.11 135.153 94.4546 134.284 94.4546Z" fill="#09017E"/>
<path d="M271.655 174.318H186.117C186.025 174.318 185.938 174.282 185.873 174.217C185.808 174.152 185.772 174.065 185.772 173.974C185.772 173.882 185.808 173.795 185.873 173.73C185.938 173.666 186.025 173.629 186.117 173.629H271.655C271.747 173.629 271.834 173.666 271.899 173.73C271.964 173.795 272 173.882 272 173.974C272 174.065 271.964 174.152 271.899 174.217C271.834 174.282 271.747 174.318 271.655 174.318Z" fill="#3F3D56"/>
</g>
<defs>
<clipPath id="clip0_1034_2080">
<rect width="272" height="174" fill="white" transform="translate(0 0.317871)"/>
</clipPath>
</defs>
</svg>
